<svg xmlns="http://www.w3.org/2000/svg" xmlns:xlink="http://www.w3.org/1999/xlink" width="1920" height="820" viewBox="0 0 1920 820">
  <defs>
    <clipPath id="clip-path">
      <rect id="Rectangle_22" data-name="Rectangle 22" width="1920" height="820" transform="translate(0 80)" fill="#fff"/>
    </clipPath>
  </defs>
  <g id="Mask_Group_1" data-name="Mask Group 1" transform="translate(0 -80)" clip-path="url(#clip-path)">
    <g id="Group_113" data-name="Group 113" transform="translate(-178.667 57.579)">
      <g id="Group_112" data-name="Group 112">
        <path id="Path_2973" data-name="Path 2973" d="M2415.775,2028.787l173.315-308.863-186.635-301.075-173.319,308.863,186.587,301.075Zm577.61-292.346-359.7,7.583-173.264,308.71,359.7-7.531ZM2368,2143.378Q2240.05,1936.43,2111.66,1729.792q122.233-217.157,243.919-434.52,253.372-5.38,506.736-10.7L3125.133,1708.7,2881.32,2143.219l-513.265.21Zm77.77-750.4,186.642,301.177,359.91-7.585-186.587-301.229-194.769,4.1-165.2,3.479-.055.056Z" transform="translate(-2111.66 -1284.571)" fill="#000847" stroke="#000f7e" stroke-width="1" fill-rule="evenodd"/>
        <path id="Path_2974" data-name="Path 2974" d="M2274.432,1682.9l92.764-165.313L2267.3,1356.44l-92.766,165.313L2274.4,1682.9Zm309.154-156.473-192.521,4.058-92.736,165.231,192.521-4.031Zm-334.727,217.8q-68.481-110.765-137.2-221.364,65.423-116.229,130.553-232.568,135.612-2.88,271.221-5.728L2654.1,1511.578l-130.5,232.567-274.715.113Zm41.625-401.635,99.9,161.2,192.635-4.06-99.867-161.227-104.246,2.2-88.418,1.862-.029.03Z" transform="translate(-1244.629 -642.641)" fill="#000847" stroke="#000f7e" stroke-width="1" fill-rule="evenodd"/>
        <path id="Path_2975" data-name="Path 2975" d="M2274.432,1682.9l92.764-165.313L2267.3,1356.44l-92.766,165.313L2274.4,1682.9Zm309.154-156.473-192.521,4.058-92.736,165.231,192.521-4.031Zm-334.727,217.8q-68.481-110.765-137.2-221.364,65.423-116.229,130.553-232.568,135.612-2.88,271.221-5.728L2654.1,1511.578l-130.5,232.567-274.715.113Zm41.625-401.635,99.9,161.2,192.635-4.06-99.867-161.227-104.246,2.2-88.418,1.862-.029.03Z" transform="translate(-162.629 -1262.064)" fill="#000847" stroke="#000f7e" stroke-width="1" fill-rule="evenodd"/>
      </g>
    </g>
  </g>
</svg>
