<svg xmlns="http://www.w3.org/2000/svg" xmlns:xlink="http://www.w3.org/1999/xlink" width="1920" height="700" viewBox="0 0 1920 700">
  <defs>
    <radialGradient id="radial-gradient" cx="0.007" cy="0.063" r="1.524" gradientTransform="matrix(0.337, 0.382, -0.119, 0.789, 0.012, 0.011)" gradientUnits="objectBoundingBox">
      <stop offset="0" stop-color="#609"/>
      <stop offset="1" stop-color="#33004d"/>
    </radialGradient>
    <clipPath id="clip-path">
      <rect id="Rectangle_25" data-name="Rectangle 25" width="1920" height="700" transform="translate(0 900)" fill="url(#radial-gradient)"/>
    </clipPath>
  </defs>
  <g id="Group_141" data-name="Group 141" transform="translate(0 -899)">
    <rect id="Rectangle_23" data-name="Rectangle 23" width="1920" height="700" transform="translate(0 899)" fill="#33004d"/>
    <g id="Mask_Group_3" data-name="Mask Group 3" transform="translate(0 -1)" clip-path="url(#clip-path)">
      <g id="Group_137" data-name="Group 137" transform="translate(-756)" opacity="0.3">
        <path id="Path_3047" data-name="Path 3047" d="M215.561,1.217l70.45,126.9a2.215,2.215,0,0,1-.005,2.142L215.468,257.314a2.033,2.033,0,0,1-1.785,1.074v.012H72.6a2.069,2.069,0,0,1-1.862-1.211L.273,130.257a2.215,2.215,0,0,1,.006-2.142L70.805,1.085A2.034,2.034,0,0,1,72.591.011V0H213.7a2.07,2.07,0,0,1,1.862,1.211Z" transform="translate(1477.724 1550.745) rotate(90)" fill="none" stroke="#609" stroke-width="2"/>
        <path id="Path_3048" data-name="Path 3048" d="M215.561,1.217l70.45,126.9a2.215,2.215,0,0,1-.005,2.142L215.468,257.314a2.033,2.033,0,0,1-1.785,1.074v.012H72.6a2.069,2.069,0,0,1-1.862-1.211L.273,130.257a2.215,2.215,0,0,1,.006-2.142L70.805,1.085A2.034,2.034,0,0,1,72.591.011V0H213.7a2.07,2.07,0,0,1,1.862,1.211Z" transform="translate(1735.502 1550.745) rotate(90)" fill="none" stroke="#609" stroke-width="2"/>
        <path id="Path_3049" data-name="Path 3049" d="M215.561,1.217l70.45,126.9a2.215,2.215,0,0,1-.005,2.142L215.468,257.314a2.033,2.033,0,0,1-1.785,1.074v.012H72.6a2.069,2.069,0,0,1-1.862-1.211L.273,130.257a2.215,2.215,0,0,1,.006-2.142L70.805,1.085A2.034,2.034,0,0,1,72.591.011V0H213.7a2.07,2.07,0,0,1,1.862,1.211Z" transform="translate(1994.796 1550.745) rotate(90)" fill="none" stroke="#609" stroke-linecap="round" stroke-width="2"/>
        <path id="Path_3047-2" data-name="Path 3047" d="M215.561,1.217l70.45,126.9a2.215,2.215,0,0,1-.005,2.142L215.468,257.314a2.033,2.033,0,0,1-1.785,1.074v.012H72.6a2.069,2.069,0,0,1-1.862-1.211L.273,130.257a2.215,2.215,0,0,1,.006-2.142L70.805,1.085A2.034,2.034,0,0,1,72.591.011V0H213.7a2.07,2.07,0,0,1,1.862,1.211Z" transform="translate(1608.13 1477.961) rotate(90)" fill="none" stroke="#609" stroke-width="2"/>
        <path id="Path_3048-2" data-name="Path 3048" d="M215.561,1.217l70.45,126.9a2.215,2.215,0,0,1-.005,2.142L215.468,257.314a2.033,2.033,0,0,1-1.785,1.074v.012H72.6a2.069,2.069,0,0,1-1.862-1.211L.273,130.257a2.215,2.215,0,0,1,.006-2.142L70.805,1.085A2.034,2.034,0,0,1,72.591.011V0H213.7a2.07,2.07,0,0,1,1.862,1.211Z" transform="translate(1865.907 1477.961) rotate(90)" fill="none" stroke="#609" stroke-width="2"/>
        <path id="Path_3045" data-name="Path 3045" d="M215.561,1.217l70.45,126.9a2.215,2.215,0,0,1-.005,2.142L215.468,257.314a2.033,2.033,0,0,1-1.785,1.074v.012H72.6a2.069,2.069,0,0,1-1.862-1.211L.273,130.257a2.215,2.215,0,0,1,.006-2.142L70.805,1.085A2.034,2.034,0,0,1,72.591.011V0H213.7a2.07,2.07,0,0,1,1.862,1.211Z" transform="translate(1089.54 1335.425) rotate(90)" fill="none" stroke="#609" stroke-width="2"/>
        <path id="Path_3047-3" data-name="Path 3047" d="M215.561,1.217l70.45,126.9a2.215,2.215,0,0,1-.005,2.142L215.468,257.314a2.033,2.033,0,0,1-1.785,1.074v.012H72.6a2.069,2.069,0,0,1-1.862-1.211L.273,130.257a2.215,2.215,0,0,1,.006-2.142L70.805,1.085A2.034,2.034,0,0,1,72.591.011V0H213.7a2.07,2.07,0,0,1,1.862,1.211Z" transform="translate(1608.13 1335.425) rotate(90)" fill="none" stroke="#609" stroke-width="2"/>
        <path id="Path_3048-3" data-name="Path 3048" d="M215.561,1.217l70.45,126.9a2.215,2.215,0,0,1-.005,2.142L215.468,257.314a2.033,2.033,0,0,1-1.785,1.074v.012H72.6a2.069,2.069,0,0,1-1.862-1.211L.273,130.257a2.215,2.215,0,0,1,.006-2.142L70.805,1.085A2.034,2.034,0,0,1,72.591.011V0H213.7a2.07,2.07,0,0,1,1.862,1.211Z" transform="translate(1865.907 1335.425) rotate(90)" fill="none" stroke="#609" stroke-width="2"/>
        <path id="Path_3046" data-name="Path 3046" d="M215.561,1.217l70.45,126.9a2.215,2.215,0,0,1-.005,2.142L215.468,257.314a2.033,2.033,0,0,1-1.785,1.074v.012H72.6a2.069,2.069,0,0,1-1.862-1.211L.273,130.257a2.215,2.215,0,0,1,.006-2.142L70.805,1.085A2.034,2.034,0,0,1,72.591.011V0H213.7a2.07,2.07,0,0,1,1.862,1.211Z" transform="translate(1477.724 1120.105) rotate(90)" fill="none" stroke="#609" stroke-width="2"/>
        <path id="Path_3047-4" data-name="Path 3047" d="M215.561,1.217l70.45,126.9a2.215,2.215,0,0,1-.005,2.142L215.468,257.314a2.033,2.033,0,0,1-1.785,1.074v.012H72.6a2.069,2.069,0,0,1-1.862-1.211L.273,130.257a2.215,2.215,0,0,1,.006-2.142L70.805,1.085A2.034,2.034,0,0,1,72.591.011V0H213.7a2.07,2.07,0,0,1,1.862,1.211Z" transform="translate(1737.018 1120.105) rotate(90)" fill="none" stroke="#609" stroke-width="2"/>
        <path id="Path_3046-2" data-name="Path 3046" d="M215.561,1.217l70.45,126.9a2.215,2.215,0,0,1-.005,2.142L215.468,257.314a2.033,2.033,0,0,1-1.785,1.074v.012H72.6a2.069,2.069,0,0,1-1.862-1.211L.273,130.257a2.215,2.215,0,0,1,.006-2.142L70.805,1.085A2.034,2.034,0,0,1,72.591.011V0H213.7a2.07,2.07,0,0,1,1.862,1.211Z" transform="translate(1608.13 904.784) rotate(90)" fill="none" stroke="#609" stroke-width="2"/>
        <path id="Path_3045-2" data-name="Path 3045" d="M215.561,1.217l70.45,126.9a2.215,2.215,0,0,1-.005,2.142L215.468,257.314a2.033,2.033,0,0,1-1.785,1.074v.012H72.6a2.069,2.069,0,0,1-1.862-1.211L.273,130.257a2.215,2.215,0,0,1,.006-2.142L70.805,1.085A2.034,2.034,0,0,1,72.591.011V0H213.7a2.07,2.07,0,0,1,1.862,1.211Z" transform="translate(1479.24 832) rotate(90)" fill="none" stroke="#609" stroke-width="2"/>
        <path id="Path_3046-3" data-name="Path 3046" d="M215.561,1.217l70.45,126.9a2.215,2.215,0,0,1-.005,2.142L215.468,257.314a2.033,2.033,0,0,1-1.785,1.074v.012H72.6a2.069,2.069,0,0,1-1.862-1.211L.273,130.257a2.215,2.215,0,0,1,.006-2.142L70.805,1.085A2.034,2.034,0,0,1,72.591.011V0H213.7a2.07,2.07,0,0,1,1.862,1.211Z" transform="translate(1608.13 1047.321) rotate(90)" fill="none" stroke="#609" stroke-width="2"/>
        <path id="Path_3046-4" data-name="Path 3046" d="M215.561,1.217l70.45,126.9a2.215,2.215,0,0,1-.005,2.142L215.468,257.314a2.033,2.033,0,0,1-1.785,1.074v.012H72.6a2.069,2.069,0,0,1-1.862-1.211L.273,130.257a2.215,2.215,0,0,1,.006-2.142L70.805,1.085A2.034,2.034,0,0,1,72.591.011V0H213.7a2.07,2.07,0,0,1,1.862,1.211Z" transform="translate(1477.724 1262.64) rotate(90)" fill="none" stroke="#609" stroke-width="2"/>
        <path id="Path_3047-5" data-name="Path 3047" d="M215.561,1.217l70.45,126.9a2.215,2.215,0,0,1-.005,2.142L215.468,257.314a2.033,2.033,0,0,1-1.785,1.074v.012H72.6a2.069,2.069,0,0,1-1.862-1.211L.273,130.257a2.215,2.215,0,0,1,.006-2.142L70.805,1.085A2.034,2.034,0,0,1,72.591.011V0H213.7a2.07,2.07,0,0,1,1.862,1.211Z" transform="translate(1737.018 1262.64) rotate(90)" fill="none" stroke="#609" stroke-width="2"/>
        <g id="Ellipse_536" data-name="Ellipse 536" transform="translate(1079.081 1537.89)" fill="#33004d" stroke="#609" stroke-width="1">
          <circle cx="11.373" cy="11.373" r="11.373" stroke="none"/>
          <circle cx="11.373" cy="11.373" r="10.873" fill="none"/>
        </g>
        <path id="Path_3051" data-name="Path 3051" d="M215.561,1.217l70.45,126.9a2.215,2.215,0,0,1-.005,2.142L215.468,257.314a2.033,2.033,0,0,1-1.785,1.074v.012H72.6a2.069,2.069,0,0,1-1.862-1.211L.273,130.257a2.215,2.215,0,0,1,.006-2.142L70.805,1.085A2.034,2.034,0,0,1,72.591.011V0H213.7a2.07,2.07,0,0,1,1.862,1.211Z" transform="translate(1348.835 1477.961) rotate(90)" fill="none" stroke="#609" stroke-width="2"/>
        <path id="Path_3052" data-name="Path 3052" d="M215.561,1.217l70.45,126.9a2.215,2.215,0,0,1-.005,2.142L215.468,257.314a2.033,2.033,0,0,1-1.785,1.074v.012H72.6a2.069,2.069,0,0,1-1.862-1.211L.273,130.257a2.215,2.215,0,0,1,.006-2.142L70.805,1.085A2.034,2.034,0,0,1,72.591.011V0H213.7a2.07,2.07,0,0,1,1.862,1.211Z" transform="translate(1348.835 1335.425) rotate(90)" fill="none" stroke="#609" stroke-width="2"/>
        <path id="Path_3053" data-name="Path 3053" d="M215.561,1.217l70.45,126.9a2.215,2.215,0,0,1-.005,2.142L215.468,257.314a2.033,2.033,0,0,1-1.785,1.074v.012H72.6a2.069,2.069,0,0,1-1.862-1.211L.273,130.257a2.215,2.215,0,0,1,.006-2.142L70.805,1.085A2.034,2.034,0,0,1,72.591.011V0H213.7a2.07,2.07,0,0,1,1.862,1.211Z" transform="translate(1218.43 1120.105) rotate(90)" fill="none" stroke="#609" stroke-width="2"/>
        <path id="Path_3054" data-name="Path 3054" d="M215.561,1.217l70.45,126.9a2.215,2.215,0,0,1-.005,2.142L215.468,257.314a2.033,2.033,0,0,1-1.785,1.074v.012H72.6a2.069,2.069,0,0,1-1.862-1.211L.273,130.257a2.215,2.215,0,0,1,.006-2.142L70.805,1.085A2.034,2.034,0,0,1,72.591.011V0H213.7a2.07,2.07,0,0,1,1.862,1.211Z" transform="translate(1348.835 904.784) rotate(90)" fill="none" stroke="#609" stroke-width="2"/>
        <path id="Path_3055" data-name="Path 3055" d="M215.561,1.217l70.45,126.9a2.215,2.215,0,0,1-.005,2.142L215.468,257.314a2.033,2.033,0,0,1-1.785,1.074v.012H72.6a2.069,2.069,0,0,1-1.862-1.211L.273,130.257a2.215,2.215,0,0,1,.006-2.142L70.805,1.085A2.034,2.034,0,0,1,72.591.011V0H213.7a2.07,2.07,0,0,1,1.862,1.211Z" transform="translate(1348.835 1047.321) rotate(90)" fill="none" stroke="#609" stroke-width="2"/>
        <path id="Path_3056" data-name="Path 3056" d="M215.561,1.217l70.45,126.9a2.215,2.215,0,0,1-.005,2.142L215.468,257.314a2.033,2.033,0,0,1-1.785,1.074v.012H72.6a2.069,2.069,0,0,1-1.862-1.211L.273,130.257a2.215,2.215,0,0,1,.006-2.142L70.805,1.085A2.034,2.034,0,0,1,72.591.011V0H213.7a2.07,2.07,0,0,1,1.862,1.211Z" transform="translate(1218.43 1262.64) rotate(90)" fill="none" stroke="#609" stroke-width="2"/>
        <path id="Path_3057" data-name="Path 3057" d="M215.561,1.217l70.45,126.9a2.215,2.215,0,0,1-.005,2.142L215.468,257.314a2.033,2.033,0,0,1-1.785,1.074v.012H72.6a2.069,2.069,0,0,1-1.862-1.211L.273,130.257a2.215,2.215,0,0,1,.006-2.142L70.805,1.085A2.034,2.034,0,0,1,72.591.011V0H213.7a2.07,2.07,0,0,1,1.862,1.211Z" transform="translate(959.136 1550.745) rotate(90)" fill="none" stroke="#609" stroke-width="2"/>
        <path id="Path_3058" data-name="Path 3058" d="M215.561,1.217l70.45,126.9a2.215,2.215,0,0,1-.005,2.142L215.468,257.314a2.033,2.033,0,0,1-1.785,1.074v.012H72.6a2.069,2.069,0,0,1-1.862-1.211L.273,130.257a2.215,2.215,0,0,1,.006-2.142L70.805,1.085A2.034,2.034,0,0,1,72.591.011V0H213.7a2.07,2.07,0,0,1,1.862,1.211Z" transform="translate(1089.54 1477.961) rotate(90)" fill="none" stroke="#609" stroke-width="2"/>
        <path id="Path_3059" data-name="Path 3059" d="M215.561,1.217l70.45,126.9a2.215,2.215,0,0,1-.005,2.142L215.468,257.314a2.033,2.033,0,0,1-1.785,1.074v.012H72.6a2.069,2.069,0,0,1-1.862-1.211L.273,130.257a2.215,2.215,0,0,1,.006-2.142L70.805,1.085A2.034,2.034,0,0,1,72.591.011V0H213.7a2.07,2.07,0,0,1,1.862,1.211Z" transform="translate(1218.43 1550.745) rotate(90)" fill="none" stroke="#609" stroke-width="2"/>
        <path id="Path_3047-6" data-name="Path 3047" d="M215.561,1.217l70.45,126.9a2.215,2.215,0,0,1-.005,2.142L215.468,257.314a2.033,2.033,0,0,1-1.785,1.074v.012H72.6a2.069,2.069,0,0,1-1.862-1.211L.273,130.257a2.215,2.215,0,0,1,.006-2.142L70.805,1.085A2.034,2.034,0,0,1,72.591.011V0H213.7a2.07,2.07,0,0,1,1.862,1.211Z" transform="translate(1477.724 1550.745) rotate(90)" fill="none"/>
        <path id="Path_3048-4" data-name="Path 3048" d="M215.561,1.217l70.45,126.9a2.215,2.215,0,0,1-.005,2.142L215.468,257.314a2.033,2.033,0,0,1-1.785,1.074v.012H72.6a2.069,2.069,0,0,1-1.862-1.211L.273,130.257a2.215,2.215,0,0,1,.006-2.142L70.805,1.085A2.034,2.034,0,0,1,72.591.011V0H213.7a2.07,2.07,0,0,1,1.862,1.211Z" transform="translate(1735.502 1550.745) rotate(90)" fill="none"/>
        <path id="Path_3049-2" data-name="Path 3049" d="M215.561,1.217l70.45,126.9a2.215,2.215,0,0,1-.005,2.142L215.468,257.314a2.033,2.033,0,0,1-1.785,1.074v.012H72.6a2.069,2.069,0,0,1-1.862-1.211L.273,130.257a2.215,2.215,0,0,1,.006-2.142L70.805,1.085A2.034,2.034,0,0,1,72.591.011V0H213.7a2.07,2.07,0,0,1,1.862,1.211Z" transform="translate(1994.796 1550.745) rotate(90)" fill="none"/>
        <path id="Path_3047-7" data-name="Path 3047" d="M215.561,1.217l70.45,126.9a2.215,2.215,0,0,1-.005,2.142L215.468,257.314a2.033,2.033,0,0,1-1.785,1.074v.012H72.6a2.069,2.069,0,0,1-1.862-1.211L.273,130.257a2.215,2.215,0,0,1,.006-2.142L70.805,1.085A2.034,2.034,0,0,1,72.591.011V0H213.7a2.07,2.07,0,0,1,1.862,1.211Z" transform="translate(1608.13 1477.961) rotate(90)" fill="none"/>
        <path id="Path_3048-5" data-name="Path 3048" d="M215.561,1.217l70.45,126.9a2.215,2.215,0,0,1-.005,2.142L215.468,257.314a2.033,2.033,0,0,1-1.785,1.074v.012H72.6a2.069,2.069,0,0,1-1.862-1.211L.273,130.257a2.215,2.215,0,0,1,.006-2.142L70.805,1.085A2.034,2.034,0,0,1,72.591.011V0H213.7a2.07,2.07,0,0,1,1.862,1.211Z" transform="translate(1865.907 1477.961) rotate(90)" fill="none"/>
        <path id="Path_3045-3" data-name="Path 3045" d="M215.561,1.217l70.45,126.9a2.215,2.215,0,0,1-.005,2.142L215.468,257.314a2.033,2.033,0,0,1-1.785,1.074v.012H72.6a2.069,2.069,0,0,1-1.862-1.211L.273,130.257a2.215,2.215,0,0,1,.006-2.142L70.805,1.085A2.034,2.034,0,0,1,72.591.011V0H213.7a2.07,2.07,0,0,1,1.862,1.211Z" transform="translate(1089.54 1335.425) rotate(90)" fill="none"/>
        <path id="Path_3047-8" data-name="Path 3047" d="M215.561,1.217l70.45,126.9a2.215,2.215,0,0,1-.005,2.142L215.468,257.314a2.033,2.033,0,0,1-1.785,1.074v.012H72.6a2.069,2.069,0,0,1-1.862-1.211L.273,130.257a2.215,2.215,0,0,1,.006-2.142L70.805,1.085A2.034,2.034,0,0,1,72.591.011V0H213.7a2.07,2.07,0,0,1,1.862,1.211Z" transform="translate(1608.13 1335.425) rotate(90)" fill="none"/>
        <path id="Path_3048-6" data-name="Path 3048" d="M215.561,1.217l70.45,126.9a2.215,2.215,0,0,1-.005,2.142L215.468,257.314a2.033,2.033,0,0,1-1.785,1.074v.012H72.6a2.069,2.069,0,0,1-1.862-1.211L.273,130.257a2.215,2.215,0,0,1,.006-2.142L70.805,1.085A2.034,2.034,0,0,1,72.591.011V0H213.7a2.07,2.07,0,0,1,1.862,1.211Z" transform="translate(1865.907 1335.425) rotate(90)" fill="none"/>
        <path id="Path_3046-5" data-name="Path 3046" d="M215.561,1.217l70.45,126.9a2.215,2.215,0,0,1-.005,2.142L215.468,257.314a2.033,2.033,0,0,1-1.785,1.074v.012H72.6a2.069,2.069,0,0,1-1.862-1.211L.273,130.257a2.215,2.215,0,0,1,.006-2.142L70.805,1.085A2.034,2.034,0,0,1,72.591.011V0H213.7a2.07,2.07,0,0,1,1.862,1.211Z" transform="translate(1477.724 1120.105) rotate(90)" fill="none"/>
        <path id="Path_3047-9" data-name="Path 3047" d="M215.561,1.217l70.45,126.9a2.215,2.215,0,0,1-.005,2.142L215.468,257.314a2.033,2.033,0,0,1-1.785,1.074v.012H72.6a2.069,2.069,0,0,1-1.862-1.211L.273,130.257a2.215,2.215,0,0,1,.006-2.142L70.805,1.085A2.034,2.034,0,0,1,72.591.011V0H213.7a2.07,2.07,0,0,1,1.862,1.211Z" transform="translate(1737.018 1120.105) rotate(90)" fill="none"/>
        <path id="Path_3046-6" data-name="Path 3046" d="M215.561,1.217l70.45,126.9a2.215,2.215,0,0,1-.005,2.142L215.468,257.314a2.033,2.033,0,0,1-1.785,1.074v.012H72.6a2.069,2.069,0,0,1-1.862-1.211L.273,130.257a2.215,2.215,0,0,1,.006-2.142L70.805,1.085A2.034,2.034,0,0,1,72.591.011V0H213.7a2.07,2.07,0,0,1,1.862,1.211Z" transform="translate(1608.13 904.784) rotate(90)" fill="none"/>
        <path id="Path_3045-4" data-name="Path 3045" d="M215.561,1.217l70.45,126.9a2.215,2.215,0,0,1-.005,2.142L215.468,257.314a2.033,2.033,0,0,1-1.785,1.074v.012H72.6a2.069,2.069,0,0,1-1.862-1.211L.273,130.257a2.215,2.215,0,0,1,.006-2.142L70.805,1.085A2.034,2.034,0,0,1,72.591.011V0H213.7a2.07,2.07,0,0,1,1.862,1.211Z" transform="translate(1479.24 832) rotate(90)" fill="none"/>
        <path id="Path_3046-7" data-name="Path 3046" d="M215.561,1.217l70.45,126.9a2.215,2.215,0,0,1-.005,2.142L215.468,257.314a2.033,2.033,0,0,1-1.785,1.074v.012H72.6a2.069,2.069,0,0,1-1.862-1.211L.273,130.257a2.215,2.215,0,0,1,.006-2.142L70.805,1.085A2.034,2.034,0,0,1,72.591.011V0H213.7a2.07,2.07,0,0,1,1.862,1.211Z" transform="translate(1608.13 1047.321) rotate(90)" fill="none"/>
        <path id="Path_3046-8" data-name="Path 3046" d="M215.561,1.217l70.45,126.9a2.215,2.215,0,0,1-.005,2.142L215.468,257.314a2.033,2.033,0,0,1-1.785,1.074v.012H72.6a2.069,2.069,0,0,1-1.862-1.211L.273,130.257a2.215,2.215,0,0,1,.006-2.142L70.805,1.085A2.034,2.034,0,0,1,72.591.011V0H213.7a2.07,2.07,0,0,1,1.862,1.211Z" transform="translate(1477.724 1262.64) rotate(90)" fill="none"/>
        <path id="Path_3047-10" data-name="Path 3047" d="M215.561,1.217l70.45,126.9a2.215,2.215,0,0,1-.005,2.142L215.468,257.314a2.033,2.033,0,0,1-1.785,1.074v.012H72.6a2.069,2.069,0,0,1-1.862-1.211L.273,130.257a2.215,2.215,0,0,1,.006-2.142L70.805,1.085A2.034,2.034,0,0,1,72.591.011V0H213.7a2.07,2.07,0,0,1,1.862,1.211Z" transform="translate(1737.018 1262.64) rotate(90)" fill="none"/>
        <circle id="Ellipse_536-2" data-name="Ellipse 536" cx="11.373" cy="11.373" r="11.373" transform="translate(1079.081 1537.89)" fill="#609"/>
        <path id="Path_3051-2" data-name="Path 3051" d="M215.561,1.217l70.45,126.9a2.215,2.215,0,0,1-.005,2.142L215.468,257.314a2.033,2.033,0,0,1-1.785,1.074v.012H72.6a2.069,2.069,0,0,1-1.862-1.211L.273,130.257a2.215,2.215,0,0,1,.006-2.142L70.805,1.085A2.034,2.034,0,0,1,72.591.011V0H213.7a2.07,2.07,0,0,1,1.862,1.211Z" transform="translate(1348.835 1477.961) rotate(90)" fill="none"/>
        <path id="Path_3052-2" data-name="Path 3052" d="M215.561,1.217l70.45,126.9a2.215,2.215,0,0,1-.005,2.142L215.468,257.314a2.033,2.033,0,0,1-1.785,1.074v.012H72.6a2.069,2.069,0,0,1-1.862-1.211L.273,130.257a2.215,2.215,0,0,1,.006-2.142L70.805,1.085A2.034,2.034,0,0,1,72.591.011V0H213.7a2.07,2.07,0,0,1,1.862,1.211Z" transform="translate(1348.835 1335.425) rotate(90)" fill="none"/>
        <path id="Path_3053-2" data-name="Path 3053" d="M215.561,1.217l70.45,126.9a2.215,2.215,0,0,1-.005,2.142L215.468,257.314a2.033,2.033,0,0,1-1.785,1.074v.012H72.6a2.069,2.069,0,0,1-1.862-1.211L.273,130.257a2.215,2.215,0,0,1,.006-2.142L70.805,1.085A2.034,2.034,0,0,1,72.591.011V0H213.7a2.07,2.07,0,0,1,1.862,1.211Z" transform="translate(1218.43 1120.105) rotate(90)" fill="none"/>
        <path id="Path_3054-2" data-name="Path 3054" d="M215.561,1.217l70.45,126.9a2.215,2.215,0,0,1-.005,2.142L215.468,257.314a2.033,2.033,0,0,1-1.785,1.074v.012H72.6a2.069,2.069,0,0,1-1.862-1.211L.273,130.257a2.215,2.215,0,0,1,.006-2.142L70.805,1.085A2.034,2.034,0,0,1,72.591.011V0H213.7a2.07,2.07,0,0,1,1.862,1.211Z" transform="translate(1348.835 904.784) rotate(90)" fill="none"/>
        <path id="Path_3055-2" data-name="Path 3055" d="M215.561,1.217l70.45,126.9a2.215,2.215,0,0,1-.005,2.142L215.468,257.314a2.033,2.033,0,0,1-1.785,1.074v.012H72.6a2.069,2.069,0,0,1-1.862-1.211L.273,130.257a2.215,2.215,0,0,1,.006-2.142L70.805,1.085A2.034,2.034,0,0,1,72.591.011V0H213.7a2.07,2.07,0,0,1,1.862,1.211Z" transform="translate(1348.835 1047.321) rotate(90)" fill="none"/>
        <path id="Path_3056-2" data-name="Path 3056" d="M215.561,1.217l70.45,126.9a2.215,2.215,0,0,1-.005,2.142L215.468,257.314a2.033,2.033,0,0,1-1.785,1.074v.012H72.6a2.069,2.069,0,0,1-1.862-1.211L.273,130.257a2.215,2.215,0,0,1,.006-2.142L70.805,1.085A2.034,2.034,0,0,1,72.591.011V0H213.7a2.07,2.07,0,0,1,1.862,1.211Z" transform="translate(1218.43 1262.64) rotate(90)" fill="none"/>
        <path id="Path_3057-2" data-name="Path 3057" d="M215.561,1.217l70.45,126.9a2.215,2.215,0,0,1-.005,2.142L215.468,257.314a2.033,2.033,0,0,1-1.785,1.074v.012H72.6a2.069,2.069,0,0,1-1.862-1.211L.273,130.257a2.215,2.215,0,0,1,.006-2.142L70.805,1.085A2.034,2.034,0,0,1,72.591.011V0H213.7a2.07,2.07,0,0,1,1.862,1.211Z" transform="translate(959.136 1550.745) rotate(90)" fill="none"/>
        <path id="Path_3058-2" data-name="Path 3058" d="M215.561,1.217l70.45,126.9a2.215,2.215,0,0,1-.005,2.142L215.468,257.314a2.033,2.033,0,0,1-1.785,1.074v.012H72.6a2.069,2.069,0,0,1-1.862-1.211L.273,130.257a2.215,2.215,0,0,1,.006-2.142L70.805,1.085A2.034,2.034,0,0,1,72.591.011V0H213.7a2.07,2.07,0,0,1,1.862,1.211Z" transform="translate(1089.54 1477.961) rotate(90)" fill="none"/>
        <path id="Path_3059-2" data-name="Path 3059" d="M215.561,1.217l70.45,126.9a2.215,2.215,0,0,1-.005,2.142L215.468,257.314a2.033,2.033,0,0,1-1.785,1.074v.012H72.6a2.069,2.069,0,0,1-1.862-1.211L.273,130.257a2.215,2.215,0,0,1,.006-2.142L70.805,1.085A2.034,2.034,0,0,1,72.591.011V0H213.7a2.07,2.07,0,0,1,1.862,1.211Z" transform="translate(1218.43 1550.745) rotate(90)" fill="none"/>
      </g>
      <g id="Group_138" data-name="Group 138" transform="translate(192.63 1025.865)">
        <path id="Path_3045-5" data-name="Path 3045" d="M130.925.739l42.789,77.077a1.345,1.345,0,0,1,0,1.3l-42.842,77.167a1.235,1.235,0,0,1-1.084.652v.007H44.1a1.257,1.257,0,0,1-1.131-.735L.166,79.113a1.345,1.345,0,0,1,0-1.3L43,.659A1.235,1.235,0,0,1,44.089.007V0H129.8a1.257,1.257,0,0,1,1.131.736Z" transform="translate(163.39 443.211) rotate(90)" fill="none" stroke="#8005bd" stroke-width="2"/>
        <path id="Path_3046-9" data-name="Path 3046" d="M130.925.739l42.789,77.077a1.345,1.345,0,0,1,0,1.3l-42.842,77.167a1.235,1.235,0,0,1-1.084.652v.007H44.1a1.257,1.257,0,0,1-1.131-.735L.166,79.113a1.345,1.345,0,0,1,0-1.3L43,.659A1.235,1.235,0,0,1,44.089.007V0H129.8a1.257,1.257,0,0,1,1.131.736Z" transform="translate(320.877 443.211) rotate(90)" fill="none" stroke="#8005bd" stroke-width="2"/>
        <path id="Path_3047-11" data-name="Path 3047" d="M130.925.739l42.789,77.077a1.345,1.345,0,0,1,0,1.3l-42.842,77.167a1.235,1.235,0,0,1-1.084.652v.007H44.1a1.257,1.257,0,0,1-1.131-.735L.166,79.113a1.345,1.345,0,0,1,0-1.3L43,.659A1.235,1.235,0,0,1,44.089.007V0H129.8a1.257,1.257,0,0,1,1.131.736Z" transform="translate(478.363 443.211) rotate(90)" fill="none" stroke="#8005bd" stroke-width="2"/>
        <path id="Path_3048-7" data-name="Path 3048" d="M130.925.739l42.789,77.077a1.345,1.345,0,0,1,0,1.3l-42.842,77.167a1.235,1.235,0,0,1-1.084.652v.007H44.1a1.257,1.257,0,0,1-1.131-.735L.166,79.113a1.345,1.345,0,0,1,0-1.3L43,.659A1.235,1.235,0,0,1,44.089.007V0H129.8a1.257,1.257,0,0,1,1.131.736Z" transform="translate(634.929 443.211) rotate(90)" fill="none" stroke="#8005bd" stroke-width="2"/>
        <path id="Path_3049-3" data-name="Path 3049" d="M130.925.739l42.789,77.077a1.345,1.345,0,0,1,0,1.3l-42.842,77.167a1.235,1.235,0,0,1-1.084.652v.007H44.1a1.257,1.257,0,0,1-1.131-.735L.166,79.113a1.345,1.345,0,0,1,0-1.3L43,.659A1.235,1.235,0,0,1,44.089.007V0H129.8a1.257,1.257,0,0,1,1.131.736Z" transform="translate(792.416 443.211) rotate(90)" fill="none" stroke="#8005bd" stroke-linecap="round" stroke-width="2"/>
        <path id="Path_3045-6" data-name="Path 3045" d="M130.925.739l42.789,77.077a1.345,1.345,0,0,1,0,1.3l-42.842,77.167a1.235,1.235,0,0,1-1.084.652v.007H44.1a1.257,1.257,0,0,1-1.131-.735L.166,79.113a1.345,1.345,0,0,1,0-1.3L43,.659A1.235,1.235,0,0,1,44.089.007V0H129.8a1.257,1.257,0,0,1,1.131.736Z" transform="translate(242.594 399.004) rotate(90)" fill="none" stroke="#8005bd" stroke-width="2"/>
        <path id="Path_3046-10" data-name="Path 3046" d="M130.925.739l42.789,77.077a1.345,1.345,0,0,1,0,1.3l-42.842,77.167a1.235,1.235,0,0,1-1.084.652v.007H44.1a1.257,1.257,0,0,1-1.131-.735L.166,79.113a1.345,1.345,0,0,1,0-1.3L43,.659A1.235,1.235,0,0,1,44.089.007V0H129.8a1.257,1.257,0,0,1,1.131.736Z" transform="translate(400.08 399.004) rotate(90)" fill="none" stroke="#8005bd" stroke-width="2"/>
        <path id="Path_3047-12" data-name="Path 3047" d="M130.925.739l42.789,77.077a1.345,1.345,0,0,1,0,1.3l-42.842,77.167a1.235,1.235,0,0,1-1.084.652v.007H44.1a1.257,1.257,0,0,1-1.131-.735L.166,79.113a1.345,1.345,0,0,1,0-1.3L43,.659A1.235,1.235,0,0,1,44.089.007V0H129.8a1.257,1.257,0,0,1,1.131.736Z" transform="translate(557.567 399.004) rotate(90)" fill="none" stroke="#8005bd" stroke-width="2"/>
        <path id="Path_3048-8" data-name="Path 3048" d="M130.925.739l42.789,77.077a1.345,1.345,0,0,1,0,1.3l-42.842,77.167a1.235,1.235,0,0,1-1.084.652v.007H44.1a1.257,1.257,0,0,1-1.131-.735L.166,79.113a1.345,1.345,0,0,1,0-1.3L43,.659A1.235,1.235,0,0,1,44.089.007V0H129.8a1.257,1.257,0,0,1,1.131.736Z" transform="translate(714.133 399.004) rotate(90)" fill="none" stroke="#8005bd" stroke-width="2"/>
        <path id="Path_3045-7" data-name="Path 3045" d="M130.925.739l42.789,77.077a1.345,1.345,0,0,1,0,1.3l-42.842,77.167a1.235,1.235,0,0,1-1.084.652v.007H44.1a1.257,1.257,0,0,1-1.131-.735L.166,79.113a1.345,1.345,0,0,1,0-1.3L43,.659A1.235,1.235,0,0,1,44.089.007V0H129.8a1.257,1.257,0,0,1,1.131.736Z" transform="translate(242.594 312.432) rotate(90)" fill="none" stroke="#8005bd" stroke-width="2"/>
        <path id="Path_3046-11" data-name="Path 3046" d="M130.925.739l42.789,77.077a1.345,1.345,0,0,1,0,1.3l-42.842,77.167a1.235,1.235,0,0,1-1.084.652v.007H44.1a1.257,1.257,0,0,1-1.131-.735L.166,79.113a1.345,1.345,0,0,1,0-1.3L43,.659A1.235,1.235,0,0,1,44.089.007V0H129.8a1.257,1.257,0,0,1,1.131.736Z" transform="translate(400.08 312.432) rotate(90)" fill="none" stroke="#8005bd" stroke-width="2"/>
        <path id="Path_3047-13" data-name="Path 3047" d="M130.925.739l42.789,77.077a1.345,1.345,0,0,1,0,1.3l-42.842,77.167a1.235,1.235,0,0,1-1.084.652v.007H44.1a1.257,1.257,0,0,1-1.131-.735L.166,79.113a1.345,1.345,0,0,1,0-1.3L43,.659A1.235,1.235,0,0,1,44.089.007V0H129.8a1.257,1.257,0,0,1,1.131.736Z" transform="translate(557.567 312.432) rotate(90)" fill="none" stroke="#8005bd" stroke-width="2"/>
        <path id="Path_3048-9" data-name="Path 3048" d="M130.925.739l42.789,77.077a1.345,1.345,0,0,1,0,1.3l-42.842,77.167a1.235,1.235,0,0,1-1.084.652v.007H44.1a1.257,1.257,0,0,1-1.131-.735L.166,79.113a1.345,1.345,0,0,1,0-1.3L43,.659A1.235,1.235,0,0,1,44.089.007V0H129.8a1.257,1.257,0,0,1,1.131.736Z" transform="translate(714.133 312.432) rotate(90)" fill="none" stroke="#8005bd" stroke-width="2"/>
        <path id="Path_3045-8" data-name="Path 3045" d="M130.925.739l42.789,77.077a1.345,1.345,0,0,1,0,1.3l-42.842,77.167a1.235,1.235,0,0,1-1.084.652v.007H44.1a1.257,1.257,0,0,1-1.131-.735L.166,79.113a1.345,1.345,0,0,1,0-1.3L43,.659A1.235,1.235,0,0,1,44.089.007V0H129.8a1.257,1.257,0,0,1,1.131.736Z" transform="translate(320.877 181.654) rotate(90)" fill="none" stroke="#8005bd" stroke-width="2"/>
        <path id="Path_3046-12" data-name="Path 3046" d="M130.925.739l42.789,77.077a1.345,1.345,0,0,1,0,1.3l-42.842,77.167a1.235,1.235,0,0,1-1.084.652v.007H44.1a1.257,1.257,0,0,1-1.131-.735L.166,79.113a1.345,1.345,0,0,1,0-1.3L43,.659A1.235,1.235,0,0,1,44.089.007V0H129.8a1.257,1.257,0,0,1,1.131.736Z" transform="translate(478.363 181.654) rotate(90)" fill="none" stroke="#8005bd" stroke-width="2"/>
        <path id="Path_3047-14" data-name="Path 3047" d="M130.925.739l42.789,77.077a1.345,1.345,0,0,1,0,1.3l-42.842,77.167a1.235,1.235,0,0,1-1.084.652v.007H44.1a1.257,1.257,0,0,1-1.131-.735L.166,79.113a1.345,1.345,0,0,1,0-1.3L43,.659A1.235,1.235,0,0,1,44.089.007V0H129.8a1.257,1.257,0,0,1,1.131.736Z" transform="translate(635.85 181.654) rotate(90)" fill="none" stroke="#8005bd" stroke-width="2"/>
        <path id="Path_3045-9" data-name="Path 3045" d="M130.925.739l42.789,77.077a1.345,1.345,0,0,1,0,1.3l-42.842,77.167a1.235,1.235,0,0,1-1.084.652v.007H44.1a1.257,1.257,0,0,1-1.131-.735L.166,79.113a1.345,1.345,0,0,1,0-1.3L43,.659A1.235,1.235,0,0,1,44.089.007V0H129.8a1.257,1.257,0,0,1,1.131.736Z" transform="translate(400.08 50.876) rotate(90)" fill="none" stroke="#8005bd" stroke-width="2"/>
        <path id="Path_3046-13" data-name="Path 3046" d="M130.925.739l42.789,77.077a1.345,1.345,0,0,1,0,1.3l-42.842,77.167a1.235,1.235,0,0,1-1.084.652v.007H44.1a1.257,1.257,0,0,1-1.131-.735L.166,79.113a1.345,1.345,0,0,1,0-1.3L43,.659A1.235,1.235,0,0,1,44.089.007V0H129.8a1.257,1.257,0,0,1,1.131.736Z" transform="translate(557.567 50.876) rotate(90)" fill="none" stroke="#8005bd" stroke-width="2"/>
        <path id="Path_3045-10" data-name="Path 3045" d="M130.925.739l42.789,77.077a1.345,1.345,0,0,1,0,1.3l-42.842,77.167a1.235,1.235,0,0,1-1.084.652v.007H44.1a1.257,1.257,0,0,1-1.131-.735L.166,79.113a1.345,1.345,0,0,1,0-1.3L43,.659A1.235,1.235,0,0,1,44.089.007V0H129.8a1.257,1.257,0,0,1,1.131.736Z" transform="translate(479.284 6.669) rotate(90)" fill="none" stroke="#8005bd" stroke-width="2"/>
        <path id="Path_3045-11" data-name="Path 3045" d="M130.925.739l42.789,77.077a1.345,1.345,0,0,1,0,1.3l-42.842,77.167a1.235,1.235,0,0,1-1.084.652v.007H44.1a1.257,1.257,0,0,1-1.131-.735L.166,79.113a1.345,1.345,0,0,1,0-1.3L43,.659A1.235,1.235,0,0,1,44.089.007V0H129.8a1.257,1.257,0,0,1,1.131.736Z" transform="translate(400.08 137.447) rotate(90)" fill="none" stroke="#8005bd" stroke-width="2"/>
        <path id="Path_3046-14" data-name="Path 3046" d="M130.925.739l42.789,77.077a1.345,1.345,0,0,1,0,1.3l-42.842,77.167a1.235,1.235,0,0,1-1.084.652v.007H44.1a1.257,1.257,0,0,1-1.131-.735L.166,79.113a1.345,1.345,0,0,1,0-1.3L43,.659A1.235,1.235,0,0,1,44.089.007V0H129.8a1.257,1.257,0,0,1,1.131.736Z" transform="translate(557.567 137.447) rotate(90)" fill="none" stroke="#8005bd" stroke-width="2"/>
        <path id="Path_3045-12" data-name="Path 3045" d="M130.925.739l42.789,77.077a1.345,1.345,0,0,1,0,1.3l-42.842,77.167a1.235,1.235,0,0,1-1.084.652v.007H44.1a1.257,1.257,0,0,1-1.131-.735L.166,79.113a1.345,1.345,0,0,1,0-1.3L43,.659A1.235,1.235,0,0,1,44.089.007V0H129.8a1.257,1.257,0,0,1,1.131.736Z" transform="translate(320.877 268.225) rotate(90)" fill="none" stroke="#8005bd" stroke-width="2"/>
        <path id="Path_3046-15" data-name="Path 3046" d="M130.925.739l42.789,77.077a1.345,1.345,0,0,1,0,1.3l-42.842,77.167a1.235,1.235,0,0,1-1.084.652v.007H44.1a1.257,1.257,0,0,1-1.131-.735L.166,79.113a1.345,1.345,0,0,1,0-1.3L43,.659A1.235,1.235,0,0,1,44.089.007V0H129.8a1.257,1.257,0,0,1,1.131.736Z" transform="translate(478.363 268.225) rotate(90)" fill="none" stroke="#8005bd" stroke-width="2"/>
        <path id="Path_3047-15" data-name="Path 3047" d="M130.925.739l42.789,77.077a1.345,1.345,0,0,1,0,1.3l-42.842,77.167a1.235,1.235,0,0,1-1.084.652v.007H44.1a1.257,1.257,0,0,1-1.131-.735L.166,79.113a1.345,1.345,0,0,1,0-1.3L43,.659A1.235,1.235,0,0,1,44.089.007V0H129.8a1.257,1.257,0,0,1,1.131.736Z" transform="translate(635.85 268.225) rotate(90)" fill="none" stroke="#8005bd" stroke-width="2"/>
        <g id="Ellipse_518" data-name="Ellipse 518" transform="translate(0 480.21)" fill="#8005bd" stroke="#8005bd" stroke-width="2">
          <circle cx="6.907" cy="6.907" r="6.907" stroke="none"/>
          <circle cx="6.907" cy="6.907" r="5.907" fill="none"/>
        </g>
        <g id="Ellipse_519" data-name="Ellipse 519" transform="translate(156.787 480.21)" fill="#33004d" stroke="#8005bd" stroke-width="2">
          <circle cx="6.907" cy="6.907" r="6.907" stroke="none"/>
          <circle cx="6.907" cy="6.907" r="5.907" fill="none"/>
        </g>
        <g id="Ellipse_520" data-name="Ellipse 520" transform="translate(313.575 480.21)" fill="#33004d" stroke="#8005bd" stroke-width="2">
          <circle cx="6.907" cy="6.907" r="6.907" stroke="none"/>
          <circle cx="6.907" cy="6.907" r="5.907" fill="none"/>
        </g>
        <g id="Ellipse_521" data-name="Ellipse 521" transform="translate(471.422 480.21)" fill="#33004d" stroke="#8005bd" stroke-width="2">
          <circle cx="6.907" cy="6.907" r="6.907" stroke="none"/>
          <circle cx="6.907" cy="6.907" r="5.907" fill="none"/>
        </g>
        <g id="Ellipse_529" data-name="Ellipse 529" transform="translate(471.422 392.282)" fill="#33004d" stroke="#8005bd" stroke-width="2">
          <circle cx="6.907" cy="6.907" r="6.907" stroke="none"/>
          <circle cx="6.907" cy="6.907" r="5.907" fill="none"/>
        </g>
        <g id="Ellipse_530" data-name="Ellipse 530" transform="translate(471.422 304.354)" fill="#8005bd" stroke="#8005bd" stroke-width="2">
          <circle cx="6.907" cy="6.907" r="6.907" stroke="none"/>
          <circle cx="6.907" cy="6.907" r="5.907" fill="none"/>
        </g>
        <g id="Ellipse_531" data-name="Ellipse 531" transform="translate(471.422 220.35)" fill="#8005bd" stroke="#8005bd" stroke-width="2">
          <circle cx="6.907" cy="6.907" r="6.907" stroke="none"/>
          <circle cx="6.907" cy="6.907" r="5.907" fill="none"/>
        </g>
        <g id="Ellipse_543" data-name="Ellipse 543" transform="translate(627.994 220.35)" fill="#8005bd" stroke="#8005bd" stroke-width="2">
          <circle cx="6.907" cy="6.907" r="6.907" stroke="none"/>
          <circle cx="6.907" cy="6.907" r="5.907" fill="none"/>
        </g>
        <g id="Ellipse_544" data-name="Ellipse 544" transform="translate(627.994 391.968)" fill="#33004d" stroke="#8005bd" stroke-width="2">
          <circle cx="6.907" cy="6.907" r="6.907" stroke="none"/>
          <circle cx="6.907" cy="6.907" r="5.907" fill="none"/>
        </g>
        <g id="Ellipse_532" data-name="Ellipse 532" transform="translate(471.422 130.616)" fill="#33004d" stroke="#8005bd" stroke-width="2">
          <circle cx="6.907" cy="6.907" r="6.907" stroke="none"/>
          <circle cx="6.907" cy="6.907" r="5.907" fill="none"/>
        </g>
        <g id="Ellipse_525" data-name="Ellipse 525" transform="translate(550.875 435.716)" fill="#8005bd" stroke="#8005bd" stroke-width="2">
          <circle cx="6.907" cy="6.907" r="6.907" stroke="none"/>
          <circle cx="6.907" cy="6.907" r="5.907" fill="none"/>
        </g>
        <g id="Ellipse_526" data-name="Ellipse 526" transform="translate(314.634 392.282)" fill="#33004d" stroke="#8005bd" stroke-width="2">
          <circle cx="6.907" cy="6.907" r="6.907" stroke="none"/>
          <circle cx="6.907" cy="6.907" r="5.907" fill="none"/>
        </g>
        <g id="Ellipse_528" data-name="Ellipse 528" transform="translate(315.478 304.354)" fill="#8005bd" stroke="#8005bd" stroke-width="2">
          <circle cx="6.907" cy="6.907" r="6.907" stroke="none"/>
          <circle cx="6.907" cy="6.907" r="5.907" fill="none"/>
        </g>
        <g id="Ellipse_540" data-name="Ellipse 540" transform="translate(156.787 304.354)" fill="#8005bd" stroke="#8005bd" stroke-width="2">
          <circle cx="6.907" cy="6.907" r="6.907" stroke="none"/>
          <circle cx="6.907" cy="6.907" r="5.907" fill="none"/>
        </g>
        <g id="Ellipse_541" data-name="Ellipse 541" transform="translate(156.787 220.35)" fill="#8005bd" stroke="#8005bd" stroke-width="2">
          <circle cx="6.907" cy="6.907" r="6.907" stroke="none"/>
          <circle cx="6.907" cy="6.907" r="5.907" fill="none"/>
        </g>
        <g id="Ellipse_542" data-name="Ellipse 542" transform="translate(315.478 220.35)" fill="#8005bd" stroke="#8005bd" stroke-width="2">
          <circle cx="6.907" cy="6.907" r="6.907" stroke="none"/>
          <circle cx="6.907" cy="6.907" r="5.907" fill="none"/>
        </g>
        <g id="Ellipse_527" data-name="Ellipse 527" transform="translate(156.787 392.282)" fill="#33004d" stroke="#8005bd" stroke-width="2">
          <circle cx="6.907" cy="6.907" r="6.907" stroke="none"/>
          <circle cx="6.907" cy="6.907" r="5.907" fill="none"/>
        </g>
        <g id="Ellipse_522" data-name="Ellipse 522" transform="translate(627.994 480.21)" fill="#33004d" stroke="#8005bd" stroke-width="2">
          <circle cx="6.907" cy="6.907" r="6.907" stroke="none"/>
          <circle cx="6.907" cy="6.907" r="5.907" fill="none"/>
        </g>
        <g id="Ellipse_558" data-name="Ellipse 558" transform="translate(707.447 523.331)" fill="#8005bd" stroke="#8005bd" stroke-width="2">
          <circle cx="6.907" cy="6.907" r="6.907" stroke="none"/>
          <circle cx="6.907" cy="6.907" r="5.907" fill="none"/>
        </g>
        <g id="Ellipse_559" data-name="Ellipse 559" transform="translate(550.659 523.331)" fill="#8005bd" stroke="#8005bd" stroke-width="2">
          <circle cx="6.907" cy="6.907" r="6.907" stroke="none"/>
          <circle cx="6.907" cy="6.907" r="5.907" fill="none"/>
        </g>
        <g id="Ellipse_560" data-name="Ellipse 560" transform="translate(393.872 523.331)" fill="#8005bd" stroke="#8005bd" stroke-width="2">
          <circle cx="6.907" cy="6.907" r="6.907" stroke="none"/>
          <circle cx="6.907" cy="6.907" r="5.907" fill="none"/>
        </g>
        <g id="Ellipse_561" data-name="Ellipse 561" transform="translate(236.025 523.331)" fill="#8005bd" stroke="#8005bd" stroke-width="2">
          <circle cx="6.907" cy="6.907" r="6.907" stroke="none"/>
          <circle cx="6.907" cy="6.907" r="5.907" fill="none"/>
        </g>
        <g id="Ellipse_562" data-name="Ellipse 562" transform="translate(79.238 523.331)" fill="#8005bd" stroke="#8005bd" stroke-width="2">
          <circle cx="6.907" cy="6.907" r="6.907" stroke="none"/>
          <circle cx="6.907" cy="6.907" r="5.907" fill="none"/>
        </g>
        <g id="Ellipse_524" data-name="Ellipse 524" transform="translate(706.603 349.593)" fill="#8005bd" stroke="#8005bd" stroke-width="2">
          <circle cx="6.907" cy="6.907" r="6.907" stroke="none"/>
          <circle cx="6.907" cy="6.907" r="5.907" fill="none"/>
        </g>
        <g id="Ellipse_533" data-name="Ellipse 533" transform="translate(550.875 349.593)" fill="#8005bd" stroke="#8005bd" stroke-width="2">
          <circle cx="6.907" cy="6.907" r="6.907" stroke="none"/>
          <circle cx="6.907" cy="6.907" r="5.907" fill="none"/>
        </g>
        <g id="Ellipse_545" data-name="Ellipse 545" transform="translate(550.875 262.725)" fill="#33004d" stroke="#8005bd" stroke-width="2">
          <circle cx="6.907" cy="6.907" r="6.907" stroke="none"/>
          <circle cx="6.907" cy="6.907" r="5.907" fill="none"/>
        </g>
        <g id="Ellipse_546" data-name="Ellipse 546" transform="translate(393.028 262.725)" fill="#33004d" stroke="#8005bd" stroke-width="2">
          <circle cx="6.907" cy="6.907" r="6.907" stroke="none"/>
          <circle cx="6.907" cy="6.907" r="5.907" fill="none"/>
        </g>
        <g id="Ellipse_547" data-name="Ellipse 547" transform="translate(235.181 262.725)" fill="#33004d" stroke="#8005bd" stroke-width="2">
          <circle cx="6.907" cy="6.907" r="6.907" stroke="none"/>
          <circle cx="6.907" cy="6.907" r="5.907" fill="none"/>
        </g>
        <g id="Ellipse_548" data-name="Ellipse 548" transform="translate(235.181 174.797)" fill="#8005bd" stroke="#8005bd" stroke-width="2">
          <circle cx="6.907" cy="6.907" r="6.907" stroke="none"/>
          <circle cx="6.907" cy="6.907" r="5.907" fill="none"/>
        </g>
        <g id="Ellipse_549" data-name="Ellipse 549" transform="translate(394.087 174.797)" fill="#8005bd" stroke="#8005bd" stroke-width="2">
          <circle cx="6.907" cy="6.907" r="6.907" stroke="none"/>
          <circle cx="6.907" cy="6.907" r="5.907" fill="none"/>
        </g>
        <g id="Ellipse_550" data-name="Ellipse 550" transform="translate(550.875 174.797)" fill="#8005bd" stroke="#8005bd" stroke-width="2">
          <circle cx="6.907" cy="6.907" r="6.907" stroke="none"/>
          <circle cx="6.907" cy="6.907" r="5.907" fill="none"/>
        </g>
        <g id="Ellipse_551" data-name="Ellipse 551" transform="translate(550.875 86.869)" fill="#8005bd" stroke="#8005bd" stroke-width="2">
          <circle cx="6.907" cy="6.907" r="6.907" stroke="none"/>
          <circle cx="6.907" cy="6.907" r="5.907" fill="none"/>
        </g>
        <g id="Ellipse_552" data-name="Ellipse 552" transform="translate(393.028 86.869)" fill="#33004d" stroke="#8005bd" stroke-width="2">
          <circle cx="6.907" cy="6.907" r="6.907" stroke="none"/>
          <circle cx="6.907" cy="6.907" r="5.907" fill="none"/>
        </g>
        <g id="Ellipse_553" data-name="Ellipse 553" transform="translate(236.24 86.869)" fill="#8005bd" stroke="#8005bd" stroke-width="2">
          <circle cx="6.907" cy="6.907" r="6.907" stroke="none"/>
          <circle cx="6.907" cy="6.907" r="5.907" fill="none"/>
        </g>
        <g id="Ellipse_554" data-name="Ellipse 554" transform="translate(315.478 44.494)" fill="#8005bd" stroke="#8005bd" stroke-width="2">
          <circle cx="6.907" cy="6.907" r="6.907" stroke="none"/>
          <circle cx="6.907" cy="6.907" r="5.907" fill="none"/>
        </g>
        <g id="Ellipse_556" data-name="Ellipse 556" transform="translate(472.266 44.494)" fill="#8005bd" stroke="#8005bd" stroke-width="2">
          <circle cx="6.907" cy="6.907" r="6.907" stroke="none"/>
          <circle cx="6.907" cy="6.907" r="5.907" fill="none"/>
        </g>
        <g id="Ellipse_557" data-name="Ellipse 557" transform="translate(392.813 0)" fill="#8005bd" stroke="#8005bd" stroke-width="2">
          <circle cx="6.907" cy="6.907" r="6.907" stroke="none"/>
          <circle cx="6.907" cy="6.907" r="5.907" fill="none"/>
        </g>
        <g id="Ellipse_555" data-name="Ellipse 555" transform="translate(315.478 127.125)" fill="#33004d" stroke="#8005bd" stroke-width="2">
          <circle cx="6.907" cy="6.907" r="6.907" stroke="none"/>
          <circle cx="6.907" cy="6.907" r="5.907" fill="none"/>
        </g>
        <g id="Ellipse_534" data-name="Ellipse 534" transform="translate(393.028 349.593)" fill="#8005bd" stroke="#8005bd" stroke-width="2">
          <circle cx="6.907" cy="6.907" r="6.907" stroke="none"/>
          <circle cx="6.907" cy="6.907" r="5.907" fill="none"/>
        </g>
        <g id="Ellipse_537" data-name="Ellipse 537" transform="translate(236.24 349.593)" fill="#8005bd" stroke="#8005bd" stroke-width="2">
          <circle cx="6.907" cy="6.907" r="6.907" stroke="none"/>
          <circle cx="6.907" cy="6.907" r="5.907" fill="none"/>
        </g>
        <g id="Ellipse_538" data-name="Ellipse 538" transform="translate(78.394 349.593)" fill="#8005bd" stroke="#8005bd" stroke-width="2">
          <circle cx="6.907" cy="6.907" r="6.907" stroke="none"/>
          <circle cx="6.907" cy="6.907" r="5.907" fill="none"/>
        </g>
        <g id="Ellipse_535" data-name="Ellipse 535" transform="translate(393.028 435.403)" fill="#8005bd" stroke="#8005bd" stroke-width="2">
          <circle cx="6.907" cy="6.907" r="6.907" stroke="none"/>
          <circle cx="6.907" cy="6.907" r="5.907" fill="none"/>
        </g>
        <g id="Ellipse_536-3" data-name="Ellipse 536" transform="translate(236.24 435.403)" fill="#8005bd" stroke="#8005bd" stroke-width="2">
          <circle cx="6.907" cy="6.907" r="6.907" stroke="none"/>
          <circle cx="6.907" cy="6.907" r="5.907" fill="none"/>
        </g>
        <g id="Ellipse_539" data-name="Ellipse 539" transform="translate(78.394 435.403)" fill="#8005bd" stroke="#8005bd" stroke-width="2">
          <circle cx="6.907" cy="6.907" r="6.907" stroke="none"/>
          <circle cx="6.907" cy="6.907" r="5.907" fill="none"/>
        </g>
        <g id="Ellipse_523" data-name="Ellipse 523" transform="translate(784.996 480.21)" fill="#8005bd" stroke="#8005bd" stroke-width="2">
          <circle cx="6.907" cy="6.907" r="6.907" stroke="none"/>
          <circle cx="6.907" cy="6.907" r="5.907" fill="none"/>
        </g>
      </g>
    </g>
  </g>
</svg>
