<svg xmlns="http://www.w3.org/2000/svg" xmlns:xlink="http://www.w3.org/1999/xlink" width="850.335" height="611.62" viewBox="0 0 850.335 611.62">
  <defs>
    <clipPath id="clip-path">
      <path id="Path_3010" data-name="Path 3010" d="M1110.837,633.509,1072.01,566.26H916.586L838.92,700.794l77.691,134.553H1072l77.685-134.559-38.845-67.273Z" transform="translate(-838.92 -566.26)" clip-rule="evenodd"/>
    </clipPath>
  </defs>
  <g id="Group_142" data-name="Group 142" transform="translate(-888.872 -184.164)">
    <path id="Path_3005" data-name="Path 3005" d="M1072.314,560.031l78.921,136.706a2.306,2.306,0,0,1-.006,2.307l-79.02,136.866a2.293,2.293,0,0,1-2,1.157v.012H912.164a2.324,2.324,0,0,1-2.086-1.3l-78.94-136.737a2.307,2.307,0,0,1,.006-2.307l79.007-136.842a2.293,2.293,0,0,1,2-1.157v-.012h158.083a2.324,2.324,0,0,1,2.086,1.3Z" transform="translate(379.323 -189.719)" fill="#004bff"/>
    <path id="Path_3006" data-name="Path 3006" d="M1110.833,633.509l-38.827-67.249H916.582L838.91,700.794,916.6,835.347h155.394l77.685-134.565Z" transform="translate(376.215 -192.62)" fill="#000847"/>
    <g id="Group_116" data-name="Group 116" transform="translate(1215.131 373.64)" clip-path="url(#clip-path)">
      <g id="_2111868094368" transform="translate(75.02 -3.089)">
        <path id="_1" data-name="1" d="M1103.717,782.4v3.089h-7.987V782.4Zm145.308,0h-7.987v3.089h7.987Zm-17.568,0v3.089H1215.49V782.4Zm-25.548,0v3.089h-15.968V782.4Zm-25.548,0v3.089h-15.967V782.4Zm-25.548,0v3.089h-15.968V782.4Zm-25.548,0v3.089H1113.3V782.4Z" transform="translate(-1012.729 -646.315)" fill="#609"/>
        <path id="Path_3007" data-name="Path 3007" d="M967.541,568.205l-2.677,1.544-4.024-6.965,2.677-1.544ZM1040.746,695l-4.024-6.966-2.677,1.544,4.024,6.965Zm-8.848-15.328-2.677,1.544-8.042-13.931,2.677-1.544Zm-12.873-22.293-2.677,1.544-8.042-13.931,2.677-1.544Zm-12.873-22.293-2.677,1.544L995.433,622.7l2.677-1.544ZM993.28,612.792l-2.677,1.544-8.042-13.931,2.677-1.544ZM980.407,590.5l-2.677,1.545-8.042-13.931,2.677-1.544Z" transform="translate(-960.84 -561.24)" fill="#23b861" fill-rule="evenodd"/>
        <path id="Path_3008" data-name="Path 3008" d="M1038.321,792.6l-2.676-1.544,4.11-7.119,2.677,1.544Zm-74.8,129.562,4.11-7.119L964.95,913.5l-4.11,7.119Zm9.045-15.66-2.677-1.544,8.221-14.239,2.677,1.544Zm13.149-22.779-2.677-1.544,8.221-14.239,2.677,1.544Zm13.149-22.779-2.677-1.544,8.221-14.239,2.677,1.544Zm13.149-22.779-2.677-1.544,8.221-14.239,2.677,1.544Zm13.15-22.779-2.677-1.544,8.221-14.239,2.677,1.544Z" transform="translate(-960.84 -646.908)" fill="#ffba00"/>
        <path id="Path_3009" data-name="Path 3009" d="M1089.024,778.63l80.81,139.961-2.671,1.532-80.8-139.961Z" transform="translate(-1009.125 -644.865)" fill="#004bff"/>
      </g>
    </g>
    <path id="Path_3011" data-name="Path 3011" d="M1110.833,633.509l-38.827-67.249H916.582L838.91,700.794,916.6,835.347h155.394l77.685-134.565Z" transform="translate(376.215 -192.62)" fill="none"/>
    <circle id="Ellipse_515" data-name="Ellipse 515" cx="9.014" cy="9.014" r="9.014" transform="translate(1321.09 429.185)" fill="#23b861"/>
    <circle id="Ellipse_516" data-name="Ellipse 516" cx="9.014" cy="9.014" r="9.014" transform="translate(1440.789 499.166)" fill="#609"/>
    <circle id="Ellipse_517" data-name="Ellipse 517" cx="9.014" cy="9.014" r="9.014" transform="translate(1321.933 567.688)" fill="#ffba00"/>
    <path id="Path_3014" data-name="Path 3014" d="M1171.131,562.782,1092.394,699.15l-2.664-1.532,78.731-136.368Z" transform="translate(279.731 -190.692)" fill="#004bff"/>
    <path id="Path_3015" data-name="Path 3015" d="M1338.117,653.153l.1,3.089-15.438.535-.1-3.089ZM1273.76,449.3l2.769-1.366,6.836,13.851-2.769,1.366Zm10.934,22.164,2.769-1.366,6.836,13.851-2.769,1.366Zm10.934,22.164,2.769-1.366,6.836,13.851-2.769,1.366Zm10.934,22.164,2.769-1.366,6.836,13.851-2.769,1.366Zm10.934,22.164,2.769-1.366,5.907,11.968.1-.006.006.234.332.671-.3.148.074,2.037-1.1.043a1.468,1.468,0,0,1-1.471-.917l-6.32-12.8Zm18.152,13.346-.111-3.089,15.438-.56.111,3.089Zm24.7-.9-.111-3.089,15.438-.56.111,3.089Zm24.7-.9-.111-3.089,15.438-.56.111,3.089Zm24.7-.9-.111-3.089,7.236-.265a1.562,1.562,0,0,1,1.612,2.314l-4.006,6.91-2.67-1.551,2.6-4.492-4.658.166Zm-2.59,12.337,2.67,1.551-7.747,13.365-2.67-1.551Zm-12.4,21.383,2.67,1.551-7.747,13.365-2.67-1.551Zm-12.4,21.382,2.671,1.551-7.747,13.365-2.67-1.551Zm-12.4,21.382,2.671,1.551L1364.883,640l-2.671-1.551Zm-12.392,21.383,2.67,1.551-3.969,6.842a1.4,1.4,0,0,1-1.292.788l-7.513.258-.1-3.089,6.658-.228Z" transform="translate(208.939 -147.101)" fill="#609"/>
    <path id="Path_3016" data-name="Path 3016" d="M971.75,1026.437l-2.609,1.649-8.251-13.057,2.609-1.649Zm187.206,60.868v3.089h-15.451V1087.3Zm-24.718,0v3.089h-15.451V1087.3Zm-24.718,0v3.089H1094.07V1087.3Zm-24.717,0v3.089h-15.451V1087.3Zm-24.718,0v3.089h-15.451V1087.3Zm-24.718,0v3.089h-15.451V1087.3Zm-24.718,0,.006.72a1.465,1.465,0,0,1-.006,1.667v.7H1009.4a1.41,1.41,0,0,1-1.354-.72l-7.562-11.962,2.609-1.649,7.107,11.242h.443Zm-12.5-19.081-2.609,1.649-8.251-13.057,2.609-1.649Zm-13.2-20.9-2.609,1.649-8.252-13.057,2.609-1.649Z" transform="translate(329.293 -364.617)" fill="#ffba00"/>
    <path id="Path_3017" data-name="Path 3017" d="M855.232,506.274l2.861-1.175,5.87,14.288-2.861,1.175ZM706.151,678.429l1.169-2.873-2.861-1.163-1.169,2.874Zm4.658-11.457-2.861-1.163,5.815-14.312,2.861,1.163Zm9.3-22.9-2.861-1.163,5.815-14.312,2.861,1.163Zm9.3-22.9-2.861-1.163L732.37,605.7l2.861,1.163Zm9.3-22.9-2.861-1.163,5.815-14.312,2.861,1.163Zm9.3-22.9-2.861-1.163,5.815-14.312,2.861,1.163Zm9.3-22.9-2.861-1.163,5.815-14.312,2.861,1.163Zm9.3-22.9-2.861-1.163,2.763-6.8-3.766-5.163,2.5-1.821,4.276,5.858a1.406,1.406,0,0,1,.172,1.526l-3.077,7.562ZM759.8,507.166l-2.5,1.821-9.107-12.479,2.5-1.821ZM745.224,487.2l-2.5,1.821-9.107-12.479,2.5-1.821Zm-14.571-19.967-2.5,1.821-5.292-7.255a1.565,1.565,0,0,1,1.089-2.646l6.233-.08.037,3.089-3.243.043,3.667,5.027Zm8.842-5.187-.037-3.089,15.445-.2.037,3.089Zm24.717-.314-.037-3.089,15.445-.2.037,3.089Zm24.718-.314-.037-3.089,15.445-.191.037,3.089Zm24.711-.308-.037-3.089,15.445-.191.037,3.089Zm22.8-.554,2.861-1.175,5.87,14.288-2.861,1.175Zm9.39,22.865,2.861-1.175,5.87,14.288-2.861,1.175Z" transform="translate(428.385 -150.909)" fill="#23b861"/>
    <path id="Path_3018" data-name="Path 3018" d="M994.173,785.487H836.706l-.006-3.077H994.167Z" transform="translate(377.065 -275.768)" fill="#004bff"/>
    <path id="Path_3022" data-name="Path 3022" d="M604.72,863.617l10.018-20.01,10.011-20.016H664.8l10.011,20.016,10.011,20.01-10.011,20.017L664.8,903.643H624.749l-10.011-20.01Z" transform="translate(466.303 -291.609)" fill="none" fill-rule="evenodd"/>
    <path id="Path_3025" data-name="Path 3025" d="M1288.16,1107.437l10.017-20.01,10.011-20.017h40.052l10.011,20.017,10.011,20.01-10.011,20.01-10.011,20.016h-40.052l-10.011-20.016Z" transform="translate(203.399 -385.4)" fill="none" fill-rule="evenodd"/>
    <path id="Path_3029" data-name="Path 3029" d="M1166.45,345.252l11.248-22.484,10.817-21.622,20.066,44.106-20.066,44.106L1177.7,367.735Zm25.481-44.962h42l11.248,22.484,10.38,20.749h-43.872v.178q-9.894-21.7-19.758-43.4Zm63.63,46.7-10.38,20.749-11.248,22.484h-42.008q9.867-21.709,19.758-43.4V347h43.873Z" transform="translate(-97.716 222.098)" fill="#23b861" fill-rule="evenodd"/>
    <path id="Path_3035" data-name="Path 3035" d="M1166.45,345.252l11.248-22.484,10.817-21.622,20.066,44.106-20.066,44.106L1177.7,367.735Zm25.481-44.962h42l11.248,22.484,10.38,20.749h-43.872v.178q-9.894-21.7-19.758-43.4Zm63.63,46.7-10.38,20.749-11.248,22.484h-42.008q9.867-21.709,19.758-43.4V347h43.873Z" transform="translate(-168.478 269.478)" fill="none" stroke="#23b861" stroke-width="1" fill-rule="evenodd"/>
    <path id="Path_3036" data-name="Path 3036" d="M1166.45,345.252l11.248-22.484,10.817-21.622,20.066,44.106-20.066,44.106L1177.7,367.735Zm25.481-44.962h42l11.248,22.484,10.38,20.749h-43.872v.178q-9.894-21.7-19.758-43.4Zm63.63,46.7-10.38,20.749-11.248,22.484h-42.008q9.867-21.709,19.758-43.4V347h43.873Z" transform="translate(-97.716 315.628)" fill="#23b861" fill-rule="evenodd"/>
    <path id="Path_3030" data-name="Path 3030" d="M1166.45,345.252l11.248-22.484,10.817-21.622,20.066,44.106-20.066,44.106L1177.7,367.735Zm25.481-44.962h42l11.248,22.484,10.38,20.749h-43.872v.178q-9.894-21.7-19.758-43.4Zm63.63,46.7-10.38,20.749-11.248,22.484h-42.008q9.867-21.709,19.758-43.4V347h43.873Z" transform="translate(325.011 380.236)" fill="#ffba00" fill-rule="evenodd"/>
    <path id="Path_3033" data-name="Path 3033" d="M1207.856,300.29h42l11.248,22.484,10.381,20.749h-43.873v.178q-9.894-21.7-19.758-43.4Zm63.631,46.7-10.381,20.749-11.248,22.484H1207.85q9.867-21.709,19.758-43.4V347h43.872Z" transform="translate(356.465 380.236)" fill="none" stroke="#ffba00" stroke-width="1" fill-rule="evenodd"/>
    <path id="Path_3034" data-name="Path 3034" d="M1207.856,300.29h42l11.248,22.484,10.381,20.749h-43.873v.178q-9.894-21.7-19.758-43.4Zm63.631,46.7-10.381,20.749-11.248,22.484H1207.85q9.867-21.709,19.758-43.4V347h43.872Z" transform="translate(403.845 380.236)" fill="none" stroke="#ffba00" stroke-width="1" fill-rule="evenodd"/>
    <path id="Path_3031" data-name="Path 3031" d="M1573.614,1036.745l11.827-21.541-12.737-21-11.83,21.538,12.737,21Zm39.423-20.391-24.546.53-11.823,21.531,24.546-.526Zm-42.682,28.384q-8.732-14.431-17.495-28.847,8.34-15.142,16.644-30.3,17.291-.371,34.581-.746l17.937,29.579-16.641,30.3-35.031.014Zm5.309-52.333,12.74,21,24.563-.53-12.736-21.011-13.291.286-11.273.244,0,0Z" transform="translate(-0.483 -434.147)" fill="#004bff" fill-rule="evenodd"/>
    <path id="Path_3032" data-name="Path 3032" d="M20.754,51.9,32.58,30.364l-12.737-21L8.013,30.9l12.737,21ZM60.176,31.514l-24.546.53L23.807,53.574l24.546-.526ZM17.495,59.9Q8.763,45.467,0,31.05,8.339,15.908,16.644.746,33.934.375,51.225,0L69.162,29.579l-16.641,30.3L17.491,59.9ZM22.8,7.564l12.74,21,24.563-.53L47.37,7.027l-13.291.286-11.273.244,0,0Z" transform="translate(1216.58 184.164) rotate(68)" fill="#609" fill-rule="evenodd"/>
    <path id="Path_3042" data-name="Path 3042" d="M20.754,51.9,32.58,30.364l-12.737-21L8.013,30.9l12.737,21ZM60.176,31.514l-24.546.53L23.807,53.574l24.546-.526ZM17.495,59.9Q8.763,45.467,0,31.05,8.339,15.908,16.644.746,33.934.375,51.225,0L69.162,29.579l-16.641,30.3L17.491,59.9ZM22.8,7.564l12.74,21,24.563-.53L47.37,7.027l-13.291.286-11.273.244,0,0Z" transform="matrix(-0.788, 0.616, -0.616, -0.788, 980.249, 338.043)" fill="#004bff" fill-rule="evenodd"/>
    <path id="Path_3043" data-name="Path 3043" d="M20.754,51.9,32.58,30.364l-12.737-21L8.013,30.9l12.737,21ZM60.176,31.514l-24.546.53L23.807,53.574l24.546-.526ZM17.495,59.9Q8.763,45.467,0,31.05,8.339,15.908,16.644.746,33.934.375,51.225,0L69.162,29.579l-16.641,30.3L17.491,59.9ZM22.8,7.564l12.74,21,24.563-.53L47.37,7.027l-13.291.286-11.273.244,0,0Z" transform="matrix(0.545, 0.839, -0.839, 0.545, 1247.43, 705.158)" fill="#23b861" fill-rule="evenodd"/>
    <path id="Path_3044" data-name="Path 3044" d="M20.754,51.9,32.58,30.364l-12.737-21L8.013,30.9l12.737,21ZM60.176,31.514l-24.546.53L23.807,53.574l24.546-.526ZM17.495,59.9Q8.763,45.467,0,31.05,8.339,15.908,16.644.746,33.934.375,51.225,0L69.162,29.579l-16.641,30.3L17.491,59.9ZM22.8,7.564l12.74,21,24.563-.53L47.37,7.027l-13.291.286-11.273.244,0,0Z" transform="matrix(0.545, 0.839, -0.839, 0.545, 1701.538, 278.124)" fill="#004bff" fill-rule="evenodd"/>
    <path id="Path_3040" data-name="Path 3040" d="M1288.16,1107.437l10.017-20.01,10.011-20.017h40.052l10.011,20.017,10.011,20.01-10.011,20.01-10.011,20.016h-40.052l-10.011-20.016Z" transform="translate(128.33 -856.122)" fill="none" fill-rule="evenodd"/>
    <path id="Path_3039" data-name="Path 3039" d="M1166.45,345.252l11.248-22.484,10.817-21.622,20.066,44.106-20.066,44.106L1177.7,367.735Zm25.481-44.962h42l11.248,22.484,10.38,20.749h-43.872v.178q-9.894-21.7-19.758-43.4Zm63.63,46.7-10.38,20.749-11.248,22.484h-42.008q9.867-21.709,19.758-43.4V347h43.873Z" transform="translate(249.941 -90.486)" fill="#609" fill-rule="evenodd"/>
    <path id="Path_3038" data-name="Path 3038" d="M1207.856,300.29h42l11.248,22.484,10.381,20.749h-43.873v.178q-9.894-21.7-19.758-43.4Zm63.631,46.7-10.381,20.749-11.248,22.484H1207.85q9.867-21.709,19.758-43.4V347h43.872Z" transform="translate(281.396 -90.486)" fill="none" stroke="#609" stroke-width="1" fill-rule="evenodd"/>
    <path id="Path_3037" data-name="Path 3037" d="M1207.856,300.29h42l11.248,22.484,10.381,20.749h-43.873v.178q-9.894-21.7-19.758-43.4Zm63.631,46.7-10.381,20.749-11.248,22.484H1207.85q9.867-21.709,19.758-43.4V347h43.872Z" transform="translate(328.776 -90.486)" fill="none" stroke="#609" stroke-width="1" fill-rule="evenodd"/>
    <circle id="Ellipse_514" data-name="Ellipse 514" cx="19.358" cy="19.358" r="19.358" transform="translate(1351.148 488.823)" fill="#fefefe"/>
  </g>
</svg>
