<?xml version="1.0" encoding="UTF-8"?>
<!DOCTYPE svg PUBLIC "-//W3C//DTD SVG 1.1//EN" "http://www.w3.org/Graphics/SVG/1.1/DTD/svg11.dtd">
<!-- Creator: CorelDRAW 2019 (64-Bit) -->
<svg xmlns="http://www.w3.org/2000/svg" xml:space="preserve" width="25.4894in" height="9.28422in" version="1.1" style="shape-rendering:geometricPrecision; text-rendering:geometricPrecision; image-rendering:optimizeQuality; fill-rule:evenodd; clip-rule:evenodd"
viewBox="0 0 7841.21 2856.07"
 xmlns:xlink="http://www.w3.org/1999/xlink"
 xmlns:xodm="http://www.corel.com/coreldraw/odm/2003">
 <defs>
  <style type="text/css">
   <![CDATA[
    .fil1 {fill:#000847}
    .fil5 {fill:#004BFF}
    .fil4 {fill:#23B861}
    .fil2 {fill:#660099}
    .fil3 {fill:#FFBA00}
    .fil0 {fill:#848688;fill-rule:nonzero}
   ]]>
  </style>
 </defs>
 <g id="C:_x005c_Users_x005c_wdeveloper_x005c_Desktop_x005c_Antria_x005c_mason_machine_learning.gif_x0020_363">
  <metadata id="CorelCorpID_0Corel-Layer"/>
  <g id="_1947555904112">
   <path class="fil0" d="M7404.32 502.13l-2149.46 299.96c-287.07,237.17 -574.08,474.43 -861.22,711.52l-94.92 -114.89 888.77 -734.28 1.02 -0.62 9.18 -4.02 1.12 -0.32c780.03,-108.85 1560.04,-217.85 2340.08,-326.56 55.63,594.6 111.16,1189.22 166.63,1783.84l-148.35 12.73c-50.92,-542.46 -101.9,-1084.92 -152.84,-1627.37zm-2162.06 256.12c734.18,-102.46 1468.34,-204.99 2202.53,-307.37 51.12,543.23 102.04,1086.48 153.07,1629.72l58.51 -5.02 -157.99 -1691.39 -2286.99 319.15 -849.03 701.44 37.32 45.17 831.25 -686.76 1.02 -0.62 9.18 -4.02 1.12 -0.32z"/>
   <path class="fil1" d="M798.29 1351.54l566.43 0 -286.24 -866.96 -280.19 866.96zm5155.42 180.75c0,115.45 40.59,210.87 121.77,285.73 80.66,75.39 176.08,112.81 284.68,112.81 109.65,0 204.55,-35.84 284.15,-108.07 79.61,-72.23 119.14,-169.22 119.14,-290.47 0,-121.78 -40.07,-218.25 -120.72,-290.48 -80.66,-72.22 -175.02,-108.07 -282.57,-108.07 -109.65,0 -205.07,37.43 -285.73,111.76 -80.66,74.86 -120.72,170.28 -120.72,286.79zm-404.87 0c0,-115.45 21.09,-221.94 62.73,-319.47 42.18,-97.53 98.58,-179.24 169.22,-244.08 70.11,-64.84 150.77,-114.93 241.45,-151.3 90.68,-35.84 185.57,-53.77 284.15,-53.77 81.19,0 165.01,17.39 252.52,51.66 86.98,34.27 155.52,88.56 204.54,162.37l0 -182.41 385.9 0 0 1477.15 -385.9 0 0 -190.31c-43.23,70.64 -109.65,124.41 -199.27,162.37 -89.62,37.43 -176.08,56.41 -257.79,56.41 -131.79,0 -255.15,-30.58 -369.55,-92.26 -114.4,-61.15 -207.71,-151.3 -279.93,-270.44 -72.23,-119.14 -108.07,-254.62 -108.07,-405.93zm-79.46 738.96l0 -1142.1 -402.17 0 0 1142.1 402.17 0zm-488.89 0l0 -1162.69 -402.17 315.56 0 847.13 402.17 0zm0 -1497.84l0 -627.38 -402.17 0 0 944.65 402.17 -317.27zm-1703.53 -41.59l324.44 0 0 -583.47 402.16 0 0 583.47 407.15 0 0 323.05 -407.15 0 0 0.09 -101.35 0 101.35 46.21 0 1170.08 -402.16 0 0 -1216.38 -77.42 0c-27.1,-85.09 -67.17,-157.68 -120.24,-217.74l0.11 -0.09c-37.09,-42.19 -79.41,-77.26 -126.89,-105.22zm-1221.06 1273.73l0 -1273.73 402.17 0 0 231.3c41.75,-80.22 105.49,-144.49 191.74,-192.29 85.71,-47.8 174.71,-71.97 267.01,-71.97 181.3,0 322.5,56.59 422.49,170.31 100.54,113.73 150.54,278 150.54,492.82l0 909.27 -402.16 0 0 -832.35c0,-108.78 -26.38,-192.84 -79.12,-252.18 -52.2,-59.33 -123.61,-89 -213.72,-89 -99.99,0 -181.3,28.02 -243.39,84.61 -62.08,56.59 -93.4,147.79 -93.4,272.51l0 816.42 -302.74 0 -99.43 0 -345.04 0 -207.68 -550.5c-315.89,0 -635.87,-1.32 -948.26,-1.32l87.14 39.73 -193.19 512.09 -448.87 0 849.93 -2271.25 455.46 0 750.5 2005.55z"/>
   <path class="fil2" d="M7446.54 255.23c111.77,0 202.37,90.61 202.37,202.37 0,111.77 -90.61,202.37 -202.37,202.37 -111.77,0 -202.37,-90.61 -202.37,-202.37 0,-111.77 90.61,-202.37 202.37,-202.37z"/>
   <path class="fil3" d="M4316.82 1273.03c111.77,0 202.37,90.61 202.37,202.37 0,111.77 -90.61,202.37 -202.37,202.37 -111.77,0 -202.37,-90.61 -202.37,-202.37 0,-111.77 90.61,-202.37 202.37,-202.37z"/>
   <path class="fil4" d="M5278.95 512.92c131.04,0 237.27,106.23 237.27,237.27 0,131.04 -106.23,237.27 -237.27,237.27 -131.04,0 -237.27,-106.23 -237.27,-237.27 0,-131.04 106.23,-237.27 237.27,-237.27z"/>
   <path class="fil0" d="M2896.05 2769.46l0 -256.11 104.95 0c14,0 26.52,2.42 37.61,7.19 11.03,4.77 19.89,11.21 26.52,19.27 6.69,8.05 11.71,16.98 15.05,26.76 3.41,9.79 5.08,20.13 5.08,30.85 0,10.97 -1.67,21.31 -5.08,31.16 -3.41,9.85 -8.42,18.71 -15.05,26.64 -6.69,7.99 -15.55,14.31 -26.64,19.02 -11.09,4.77 -23.6,7.13 -37.67,7.13l-50.49 0 0 88.1 -54.27 0zm54.27 -136.05l48.2 0c9.97,0 17.84,-3.72 23.73,-11.09 5.82,-7.37 8.73,-15.67 8.73,-24.9 0,-8.92 -2.79,-17.22 -8.3,-24.78 -5.51,-7.56 -13.13,-11.34 -22.74,-11.34l-49.62 0 0 72.11zm165.72 66.17l0 -103.71 51.3 0 0 93.42c0,6.63 0.99,12.33 3.04,17.16 1.98,4.77 4.65,8.42 7.93,10.78 3.28,2.42 6.57,4.15 9.85,5.2 3.28,1.12 6.63,1.67 10.04,1.67 9.04,0 16.54,-2.85 22.55,-8.61 6.01,-5.76 9.05,-14.81 9.05,-27.14l0 -92.49 51.3 0 0 173.59 -51.3 0 0 -23.23c-4.52,8.36 -10.97,14.93 -19.45,19.7 -8.43,4.83 -17.04,7.25 -25.83,7.25 -20.32,0 -36.86,-6.32 -49.5,-18.89 -12.64,-12.58 -18.96,-30.85 -18.96,-54.7zm212.93 69.88l0 -173.59 51.3 0 0 41.69c4.09,-14.93 10.84,-26.21 20.13,-33.89 9.35,-7.68 18.96,-11.52 28.87,-11.52 11.65,0 21.56,2.11 29.8,6.26l-9.29 46.22c-7.13,-3.53 -15.98,-5.27 -26.52,-5.27 -14.74,0 -25.59,5.76 -32.59,17.29 -6.94,11.52 -10.41,28.87 -10.41,52.04l0 60.78 -51.3 0zm145.4 -55.76l48.26 0c0.25,4.83 2.85,9.17 7.81,12.95 4.96,3.78 10.9,5.64 17.78,5.64 5.95,-0.25 10.97,-1.67 15.05,-4.27 4.15,-2.6 6.2,-6.01 6.2,-10.22 0,-3.72 -1.3,-6.69 -3.84,-8.98 -2.54,-2.23 -6.94,-4.09 -13.2,-5.7l-22.74 -5.95c-9.91,-2.66 -18.4,-5.95 -25.4,-9.91 -7,-3.97 -12.2,-7.68 -15.61,-11.21 -3.35,-3.59 -5.95,-7.75 -7.81,-12.64 -1.8,-4.83 -2.85,-8.67 -3.1,-11.58 -0.19,-2.85 -0.25,-6.44 -0.12,-10.78 0.19,-12.82 7.06,-24.16 20.51,-34.07 13.38,-9.85 29.12,-14.81 47.15,-14.81 7.19,0 14,0.62 20.57,1.92 6.63,1.24 13.01,3.35 19.14,6.26 6.19,2.85 11.52,6.5 16.05,10.84 4.52,4.34 8.12,9.79 10.9,16.42 2.79,6.57 4.21,13.94 4.34,22.18l-48.32 0c-0.25,-10.66 -6.82,-15.98 -19.76,-15.98 -5.57,0 -10.04,1.18 -13.38,3.53 -3.35,2.35 -4.89,5.45 -4.77,9.35 0.43,6.26 5.51,10.59 15.24,13.01l29.37 7.81c7.93,2.17 14.87,5.02 20.82,8.55 5.95,3.59 10.53,7.19 13.69,10.78 3.16,3.66 5.76,7.56 7.74,11.77 1.98,4.28 3.22,7.81 3.78,10.78 0.56,2.97 0.81,5.76 0.81,8.43 0,9.04 -2.17,17.16 -6.5,24.47 -4.27,7.25 -10.04,13.07 -17.29,17.47 -7.19,4.4 -15.18,7.74 -23.85,10.04 -8.74,2.29 -17.78,3.41 -27.07,3.41 -7.13,0 -14.19,-0.81 -21.06,-2.42 -6.88,-1.67 -13.44,-4.15 -19.58,-7.43 -6.2,-3.35 -11.65,-7.31 -16.36,-11.96 -4.71,-4.65 -8.43,-10.16 -11.15,-16.73 -2.73,-6.5 -4.15,-13.44 -4.28,-20.94zm182.02 -14.12l0 -103.71 51.3 0 0 93.42c0,6.63 0.99,12.33 3.04,17.16 1.98,4.77 4.65,8.42 7.93,10.78 3.28,2.42 6.57,4.15 9.85,5.2 3.28,1.12 6.63,1.67 10.04,1.67 9.04,0 16.54,-2.85 22.55,-8.61 6.01,-5.76 9.05,-14.81 9.05,-27.14l0 -92.49 51.3 0 0 173.59 -51.3 0 0 -23.23c-4.52,8.36 -10.97,14.93 -19.45,19.7 -8.43,4.83 -17.04,7.25 -25.83,7.25 -20.32,0 -36.86,-6.32 -49.5,-18.89 -12.64,-12.58 -18.96,-30.85 -18.96,-54.7zm215.72 -146.39c-6.32,-5.95 -9.48,-13.13 -9.48,-21.62 0,-8.49 3.16,-15.61 9.54,-21.37 6.32,-5.82 13.88,-8.73 22.74,-8.73 8.73,0 16.17,2.91 22.36,8.73 6.19,5.76 9.29,12.89 9.29,21.37 0,8.49 -3.1,15.67 -9.29,21.62 -6.19,5.89 -13.63,8.86 -22.36,8.86 -8.86,0 -16.42,-2.97 -22.8,-8.86zm-2.79 216.28l0 -173.59 51.3 0 0 173.59 -51.3 0zm98.75 0l0 -173.59 51.3 0 0 25.83c4.65,-8.86 11.59,-15.98 20.94,-21.43 9.29,-5.39 19.08,-8.12 29.43,-8.12 19.95,0 35.5,6.26 46.65,18.71 11.15,12.45 16.73,30.79 16.73,54.95l0 103.65 -51.3 0 0 -91.81c0,-11.03 -2.79,-19.52 -8.3,-25.4 -5.58,-5.89 -12.89,-8.8 -21.99,-8.8 -21.44,0 -32.15,11.65 -32.15,34.94l0 91.07 -51.3 0zm200.66 -86.18c0,-13.51 2.42,-26.08 7.31,-37.67 4.83,-11.52 11.34,-21.19 19.39,-28.87 8.05,-7.68 17.35,-13.69 27.82,-18.03 10.41,-4.4 21.19,-6.57 32.28,-6.57 11.09,0 21.5,2.29 31.16,6.81 9.73,4.52 16.6,10.66 20.69,18.4l0 -21.5 50.93 0 0 149.43c0,36.8 -8.55,64.49 -25.65,83.02 -17.1,18.52 -41.51,27.76 -73.17,27.76 -19.02,0 -36.24,-4.89 -51.54,-14.68 -15.36,-9.79 -26.7,-22.86 -34.07,-39.22 4.34,-2.17 11.34,-5.58 21,-10.22 9.6,-4.65 16.6,-7.99 21,-10.1 2.91,7.87 8.67,14.43 17.29,19.76 8.61,5.33 17.41,7.99 26.33,7.99 34.51,0 50.49,-20.57 47.89,-61.7 -3.97,7.74 -10.84,13.94 -20.57,18.46 -9.79,4.52 -20.2,6.82 -31.29,6.82 -15.05,0 -29.12,-3.66 -42.19,-10.9 -13.13,-7.25 -23.85,-17.84 -32.15,-31.78 -8.3,-13.88 -12.45,-29.61 -12.45,-47.21zm54.27 -1.24c0,12.51 4.09,22.67 12.2,30.42 8.12,7.74 17.84,11.65 29.18,11.65 10.97,0 20.63,-3.97 29.06,-11.89 8.42,-7.99 12.64,-18.03 12.64,-30.17 0,-12.39 -4.09,-22.3 -12.33,-29.74 -8.24,-7.37 -18.03,-11.09 -29.36,-11.09 -11.34,0 -21.06,3.84 -29.18,11.46 -8.12,7.68 -12.2,17.41 -12.2,29.36zm278.97 87.42l0 -256.11 54.27 0 0 256.11 -54.27 0zm108.05 0l0 -173.59 51.3 0 0 25.83c4.65,-8.86 11.59,-15.98 20.94,-21.43 9.29,-5.39 19.08,-8.12 29.43,-8.12 19.95,0 35.5,6.26 46.65,18.71 11.15,12.45 16.73,30.79 16.73,54.95l0 103.65 -51.3 0 0 -91.81c0,-11.03 -2.79,-19.52 -8.3,-25.4 -5.58,-5.89 -12.89,-8.8 -21.99,-8.8 -21.44,0 -32.15,11.65 -32.15,34.94l0 91.07 -51.3 0zm195.83 -132.7l0 -40.89 31.6 0 0 -66.54 51.3 0 0 66.54 36.43 0 0 40.89 -36.43 0 0 132.7 -51.3 0 0 -132.7 -31.6 0zm150.17 93.11c-8.18,-13.94 -12.27,-29.8 -12.27,-47.46 0,-17.66 4.09,-33.45 12.27,-47.33 8.12,-13.88 19.08,-24.53 32.83,-31.91 13.75,-7.37 28.87,-11.03 45.47,-11.03 12.2,0 23.79,2.23 34.63,6.69 10.9,4.52 20.32,10.66 28.31,18.52 7.99,7.87 14.31,17.53 19.02,28.93 4.65,11.46 6.94,23.85 6.94,37.3 0,4.58 -0.25,9.91 -0.68,15.98l-127.25 0c1.18,9.42 6.07,16.67 14.62,21.74 8.49,5.08 17.91,7.62 28.19,7.62 7.5,0 14.68,-1.42 21.5,-4.21 6.88,-2.85 12.33,-6.94 16.48,-12.33l37.54 25.77c-8.12,12.02 -19.33,20.88 -33.58,26.52 -14.25,5.64 -29.55,8.49 -45.72,8.49 -16.6,0 -31.72,-3.72 -45.47,-11.15 -13.75,-7.44 -24.72,-18.15 -32.83,-32.15zm40.02 -62.63l75.09 0c-1.18,-9.42 -5.45,-16.54 -12.76,-21.37 -7.31,-4.83 -15.24,-7.25 -23.67,-7.25 -8.49,0 -16.54,2.35 -24.16,7.06 -7.62,4.71 -12.45,11.89 -14.5,21.56zm162.44 102.22l0 -173.59 51.3 0 0 41.69c4.09,-14.93 10.84,-26.21 20.13,-33.89 9.35,-7.68 18.96,-11.52 28.87,-11.52 11.65,0 21.56,2.11 29.8,6.26l-9.29 46.22c-7.13,-3.53 -15.98,-5.27 -26.52,-5.27 -14.74,0 -25.59,5.76 -32.59,17.29 -6.94,11.52 -10.41,28.87 -10.41,52.04l0 60.78 -51.3 0zm143.85 -87.35c0,-17.66 4.09,-33.39 12.27,-47.27 8.18,-13.82 19.08,-24.41 32.71,-31.72 13.63,-7.31 28.62,-10.97 44.98,-10.97 16.36,0 31.35,3.66 44.98,11.03 13.69,7.37 24.66,18.03 32.96,31.97 8.24,14 12.39,29.61 12.39,46.96 0,17.35 -4.15,33.02 -12.39,47.08 -8.3,14.06 -19.27,24.78 -32.96,32.15 -13.63,7.37 -28.62,11.09 -44.98,11.09 -16.36,0 -31.35,-3.66 -44.98,-10.97 -13.63,-7.37 -24.53,-17.97 -32.71,-31.84 -8.18,-13.88 -12.27,-29.68 -12.27,-47.52zm50.93 0c0,11.52 3.78,20.94 11.34,28.19 7.56,7.25 16.79,10.84 27.69,10.84 11.15,0 20.51,-3.59 28.06,-10.78 7.56,-7.19 11.34,-16.6 11.34,-28.25 0,-11.28 -3.84,-20.57 -11.46,-27.82 -7.62,-7.25 -16.91,-10.84 -27.94,-10.84 -10.9,0 -20.13,3.59 -27.69,10.84 -7.56,7.25 -11.34,16.54 -11.34,27.82zm166.4 172.48l0 -258.71 51.3 0 0 21.5c4.21,-7.87 11.03,-14 20.38,-18.52 9.29,-4.46 19.45,-6.69 30.48,-6.69 11.15,0 21.81,2.17 31.97,6.44 10.16,4.28 19.08,10.28 26.76,17.91 7.68,7.68 13.82,17.22 18.46,28.56 4.58,11.34 6.88,23.67 6.88,36.99 0,13.57 -2.29,26.14 -6.88,37.73 -4.65,11.59 -10.78,21.25 -18.46,28.93 -7.68,7.68 -16.6,13.69 -26.76,18.03 -10.16,4.28 -20.82,6.44 -31.97,6.44 -11.15,0 -21.37,-2.23 -30.67,-6.69 -9.35,-4.46 -16.05,-10.59 -20.2,-18.4l0 106.5 -51.3 0zm52.41 -171.48c0,12.39 3.9,22.36 11.71,29.8 7.81,7.5 17.29,11.21 28.44,11.21 11.28,0 20.75,-3.78 28.5,-11.4 7.74,-7.56 11.65,-17.41 11.65,-29.61 0,-12.39 -3.9,-22.49 -11.65,-30.23 -7.74,-7.74 -17.22,-11.65 -28.5,-11.65 -11.03,0 -20.51,3.96 -28.37,11.83 -7.87,7.87 -11.77,17.9 -11.77,30.05zm173.1 46.77c-8.18,-13.94 -12.27,-29.8 -12.27,-47.46 0,-17.66 4.09,-33.45 12.27,-47.33 8.12,-13.88 19.08,-24.53 32.83,-31.91 13.75,-7.37 28.87,-11.03 45.47,-11.03 12.2,0 23.79,2.23 34.63,6.69 10.9,4.52 20.32,10.66 28.31,18.52 7.99,7.87 14.31,17.53 19.02,28.93 4.65,11.46 6.94,23.85 6.94,37.3 0,4.58 -0.25,9.91 -0.68,15.98l-127.25 0c1.18,9.42 6.07,16.67 14.62,21.74 8.49,5.08 17.91,7.62 28.19,7.62 7.5,0 14.68,-1.42 21.5,-4.21 6.88,-2.85 12.33,-6.94 16.48,-12.33l37.54 25.77c-8.12,12.02 -19.33,20.88 -33.58,26.52 -14.25,5.64 -29.55,8.49 -45.72,8.49 -16.6,0 -31.72,-3.72 -45.47,-11.15 -13.75,-7.44 -24.72,-18.15 -32.83,-32.15zm40.02 -62.63l75.09 0c-1.18,-9.42 -5.45,-16.54 -12.76,-21.37 -7.31,-4.83 -15.24,-7.25 -23.67,-7.25 -8.49,0 -16.54,2.35 -24.16,7.06 -7.62,4.71 -12.45,11.89 -14.5,21.56zm162.44 102.22l0 -173.59 51.3 0 0 41.69c4.09,-14.93 10.84,-26.21 20.13,-33.89 9.35,-7.68 18.96,-11.52 28.87,-11.52 11.65,0 21.56,2.11 29.8,6.26l-9.29 46.22c-7.13,-3.53 -15.98,-5.27 -26.52,-5.27 -14.74,0 -25.59,5.76 -32.59,17.29 -6.94,11.52 -10.41,28.87 -10.41,52.04l0 60.78 -51.3 0zm143.85 -86.92c0,-13.38 2.54,-25.9 7.56,-37.48 5.02,-11.52 11.65,-21.13 20.01,-28.68 8.36,-7.56 17.78,-13.51 28.31,-17.78 10.53,-4.27 21.37,-6.44 32.52,-6.44 4.71,0 9.73,0.5 15.12,1.55 5.39,0.99 11.65,3.41 18.71,7.06 7.06,3.72 12.7,8.49 16.79,14.43l0 -19.33 50.93 0 0 173.59 -50.93 0 0 -19.76c-4.96,7.5 -12.58,13.26 -22.8,17.16 -10.22,3.96 -19.51,5.95 -27.82,5.95 -15.05,0 -29.18,-3.59 -42.5,-10.72 -13.32,-7.13 -24.29,-17.72 -32.96,-31.66 -8.61,-14 -12.95,-29.92 -12.95,-47.89zm66.66 -29.61c-8.73,7.81 -13.13,17.66 -13.13,29.61 0,12.02 4.4,21.87 13.13,29.61 8.8,7.74 18.9,11.58 30.23,11.58 11.28,0 21.13,-3.78 29.49,-11.34 8.43,-7.56 12.64,-17.47 12.64,-29.86 0,-12.45 -4.21,-22.43 -12.64,-29.99 -8.36,-7.56 -18.21,-11.34 -29.49,-11.34 -11.34,0 -21.44,3.9 -30.23,11.71zm171.18 116.53l0 -268.01 51.3 0 0 115.79c4.15,-7.81 10.84,-13.94 20.2,-18.4 9.29,-4.46 19.51,-6.69 30.67,-6.69 11.15,0 21.81,2.17 31.97,6.57 10.16,4.34 19.08,10.41 26.76,18.09 7.68,7.68 13.82,17.35 18.46,28.93 4.58,11.58 6.88,24.16 6.88,37.73 0,13.32 -2.29,25.65 -6.88,36.99 -4.65,11.34 -10.78,20.82 -18.46,28.44 -7.68,7.62 -16.6,13.57 -26.76,17.84 -10.16,4.28 -20.82,6.44 -31.97,6.44 -11.03,0 -21.19,-2.23 -30.48,-6.75 -9.36,-4.46 -16.17,-10.66 -20.38,-18.52l0 21.56 -51.3 0zm52.41 -87.04c0,12.14 3.9,22.12 11.77,29.99 7.87,7.81 17.35,11.71 28.37,11.71 11.28,0 20.75,-3.84 28.5,-11.58 7.74,-7.68 11.65,-17.72 11.65,-30.11 0,-12.2 -3.9,-22.05 -11.65,-29.74 -7.74,-7.62 -17.22,-11.46 -28.5,-11.46 -11.15,0 -20.63,3.78 -28.44,11.27 -7.81,7.56 -11.71,17.47 -11.71,29.92zm173.96 -129.23c-6.32,-5.95 -9.48,-13.13 -9.48,-21.62 0,-8.49 3.16,-15.61 9.54,-21.37 6.32,-5.82 13.88,-8.73 22.74,-8.73 8.73,0 16.17,2.91 22.36,8.73 6.19,5.76 9.29,12.89 9.29,21.37 0,8.49 -3.1,15.67 -9.29,21.62 -6.19,5.89 -13.63,8.86 -22.36,8.86 -8.86,0 -16.42,-2.97 -22.8,-8.86zm-2.79 216.28l0 -173.59 51.3 0 0 173.59 -51.3 0zm98.75 0l0 -268.01 51.3 0 0 268.01 -51.3 0zm101.91 -216.28c-6.32,-5.95 -9.48,-13.13 -9.48,-21.62 0,-8.49 3.16,-15.61 9.54,-21.37 6.32,-5.82 13.88,-8.73 22.74,-8.73 8.73,0 16.17,2.91 22.36,8.73 6.19,5.76 9.29,12.89 9.29,21.37 0,8.49 -3.1,15.67 -9.29,21.62 -6.19,5.89 -13.63,8.86 -22.36,8.86 -8.86,0 -16.42,-2.97 -22.8,-8.86zm-2.79 216.28l0 -173.59 51.3 0 0 173.59 -51.3 0zm83.51 -132.7l0 -40.89 31.6 0 0 -66.54 51.3 0 0 66.54 36.43 0 0 40.89 -36.43 0 0 132.7 -51.3 0 0 -132.7 -31.6 0zm128.12 -40.89l54.95 0 38.29 98.38 38.66 -98.38 55.01 0 -107.05 258.71 -54.64 0 41.76 -102.97 -66.97 -155.75z"/>
   <path class="fil5" d="M7638.84 1861.28c111.77,0 202.37,90.61 202.37,202.37 0,111.77 -90.61,202.37 -202.37,202.37 -111.77,0 -202.37,-90.61 -202.37,-202.37 0,-111.77 90.61,-202.37 202.37,-202.37z"/>
   <polygon class="fil0" points="2624.64,2623.18 -0,2623.18 -0,2734.35 2624.64,2734.35 "/>
  </g>
 </g>
</svg>
