<?xml version="1.0" encoding="UTF-8"?>
<!DOCTYPE svg PUBLIC "-//W3C//DTD SVG 1.1//EN" "http://www.w3.org/Graphics/SVG/1.1/DTD/svg11.dtd">
<!-- Creator: CorelDRAW 2019 (64-Bit) -->
<svg xmlns="http://www.w3.org/2000/svg" xml:space="preserve" width="25.4894in" height="9.28422in" version="1.1" style="shape-rendering:geometricPrecision; text-rendering:geometricPrecision; image-rendering:optimizeQuality; fill-rule:evenodd; clip-rule:evenodd"
viewBox="0 0 4487.48 1634.51"
 xmlns:xlink="http://www.w3.org/1999/xlink"
 xmlns:xodm="http://www.corel.com/coreldraw/odm/2003">
 <defs>
  <style type="text/css">
   <![CDATA[
    .fil1 {fill:#FEFEFE}
    .fil5 {fill:#004BFF}
    .fil4 {fill:#23B861}
    .fil2 {fill:#660099}
    .fil3 {fill:#FFBA00}
    .fil0 {fill:#FEFEFE;fill-rule:nonzero}
   ]]>
  </style>
 </defs>
 <g id="C:_x005c_Users_x005c_wdeveloper_x005c_Desktop_x005c_Antria_x005c_mason_machine_learning.gif_x0020_363">
  <metadata id="CorelCorpID_0Corel-Layer"/>
  <g id="_1947441911408">
   <path class="fil0" d="M4237.45 287.37l-1230.13 171.67c-164.29,135.73 -328.54,271.51 -492.87,407.2l-54.32 -65.75 508.64 -420.22 0.58 -0.35 5.25 -2.3 0.64 -0.18c446.41,-62.3 892.8,-124.68 1339.22,-186.89 31.84,340.29 63.62,680.58 95.36,1020.88l-84.9 7.29c-29.14,-310.45 -58.31,-620.89 -87.47,-931.34zm-1237.33 146.58c420.17,-58.64 840.33,-117.32 1260.5,-175.91 29.25,310.89 58.4,621.79 87.6,932.68l33.49 -2.87 -90.42 -967.97 -1308.83 182.65 -485.89 401.43 21.36 25.85 475.72 -393.03 0.58 -0.35 5.25 -2.3 0.64 -0.18z"/>
   <path class="fil1" d="M456.86 773.48l324.17 0 -163.81 -496.16 -160.35 496.16zm2950.41 103.44c0,66.07 23.23,120.68 69.69,163.52 46.16,43.14 100.77,64.56 162.92,64.56 62.75,0 117.06,-20.51 162.62,-61.85 45.56,-41.33 68.18,-96.85 68.18,-166.24 0,-69.69 -22.93,-124.9 -69.09,-166.24 -46.16,-41.33 -100.16,-61.85 -161.71,-61.85 -62.75,0 -117.36,21.42 -163.52,63.96 -46.16,42.84 -69.09,97.45 -69.09,164.13zm-231.71 0c0,-66.07 12.07,-127.02 35.9,-182.83 24.14,-55.81 56.42,-102.58 96.85,-139.69 40.13,-37.11 86.29,-65.77 138.18,-86.59 51.89,-20.51 106.2,-30.77 162.62,-30.77 46.46,0 94.43,9.95 144.52,29.57 49.78,19.61 89,50.69 117.06,92.93l0 -104.39 220.85 0 0 845.37 -220.85 0 0 -108.91c-24.74,40.43 -62.75,71.2 -114.04,92.92 -51.29,21.42 -100.77,32.28 -147.53,32.28 -75.42,0 -146.02,-17.5 -211.49,-52.8 -65.47,-35 -118.87,-86.59 -160.2,-154.77 -41.33,-68.18 -61.85,-145.72 -61.85,-232.31zm-45.47 422.9l0 -653.62 -230.16 0 0 653.62 230.16 0zm-279.79 0l0 -665.4 -230.16 180.59 0 484.81 230.16 0zm0 -857.21l0 -359.04 -230.16 0 0 540.62 230.16 -181.57zm-974.92 -23.8l185.68 0 0 -333.92 230.16 0 0 333.92 233.01 0 0 184.88 -233.01 0 0 0.05 -58 0 58 26.45 0 669.63 -230.16 0 0 -696.13 -44.31 0c-15.51,-48.7 -38.44,-90.24 -68.81,-124.61l0.06 -0.05c-21.23,-24.15 -45.45,-44.21 -72.62,-60.22zm-698.8 728.95l0 -728.95 230.16 0 0 132.37c23.9,-45.91 60.37,-82.69 109.73,-110.05 49.05,-27.35 99.98,-41.19 152.81,-41.19 103.76,0 184.56,32.39 241.79,97.47 57.54,65.08 86.15,159.1 86.15,282.04l0 520.37 -230.15 0 0 -476.35c0,-62.25 -15.1,-110.36 -45.28,-144.32 -29.87,-33.96 -70.74,-50.93 -122.31,-50.93 -57.22,0 -103.76,16.04 -139.29,48.42 -35.53,32.39 -53.45,84.58 -53.45,155.95l0 467.23 -173.26 0 -56.9 0 -197.46 0 -118.85 -315.05c-180.78,0 -363.9,-0.76 -542.69,-0.76l49.87 22.74 -110.56 293.07 -256.88 0 486.41 -1299.82 260.65 0 429.51 1147.76z"/>
   <path class="fil2" d="M4261.61 146.06c63.96,0 115.82,51.85 115.82,115.82 0,63.96 -51.85,115.82 -115.82,115.82 -63.96,0 -115.82,-51.85 -115.82,-115.82 0,-63.96 51.85,-115.82 115.82,-115.82z"/>
   <path class="fil3" d="M2470.49 728.55c63.96,0 115.82,51.85 115.82,115.82 0,63.96 -51.85,115.82 -115.82,115.82 -63.96,0 -115.82,-51.85 -115.82,-115.82 0,-63.96 51.85,-115.82 115.82,-115.82z"/>
   <path class="fil4" d="M3021.11 293.54c74.99,0 135.79,60.79 135.79,135.79 0,74.99 -60.79,135.79 -135.79,135.79 -74.99,0 -135.79,-60.79 -135.79,-135.79 0,-74.99 60.79,-135.79 135.79,-135.79z"/>
   <path class="fil0" d="M1657.39 1584.94l0 -146.57 60.06 0c8.01,0 15.18,1.38 21.52,4.11 6.31,2.73 11.38,6.42 15.17,11.03 3.83,4.61 6.7,9.71 8.62,15.32 1.95,5.6 2.91,11.52 2.91,17.66 0,6.28 -0.96,12.2 -2.91,17.83 -1.95,5.64 -4.82,10.71 -8.62,15.25 -3.83,4.57 -8.9,8.19 -15.25,10.88 -6.35,2.73 -13.51,4.08 -21.56,4.08l-28.9 0 0 50.42 -31.06 0zm31.06 -77.86l27.58 0c5.71,0 10.21,-2.13 13.58,-6.35 3.33,-4.22 5,-8.97 5,-14.25 0,-5.11 -1.6,-9.86 -4.75,-14.18 -3.16,-4.33 -7.52,-6.49 -13.01,-6.49l-28.4 0 0 41.27zm94.84 37.87l0 -59.35 29.36 0 0 53.47c0,3.79 0.57,7.06 1.74,9.82 1.13,2.73 2.66,4.82 4.54,6.17 1.88,1.38 3.76,2.38 5.64,2.98 1.88,0.64 3.79,0.96 5.74,0.96 5.18,0 9.47,-1.63 12.91,-4.93 3.44,-3.3 5.18,-8.47 5.18,-15.53l0 -52.93 29.36 0 0 99.35 -29.36 0 0 -13.3c-2.59,4.79 -6.28,8.54 -11.13,11.27 -4.82,2.77 -9.75,4.15 -14.78,4.15 -11.63,0 -21.1,-3.62 -28.33,-10.81 -7.23,-7.2 -10.85,-17.66 -10.85,-31.31zm121.86 39.99l0 -99.35 29.36 0 0 23.86c2.34,-8.54 6.2,-15 11.52,-19.39 5.35,-4.4 10.85,-6.59 16.52,-6.59 6.67,0 12.34,1.21 17.05,3.58l-5.32 26.45c-4.08,-2.02 -9.15,-3.01 -15.18,-3.01 -8.44,0 -14.64,3.3 -18.65,9.89 -3.97,6.59 -5.96,16.52 -5.96,29.78l0 34.78 -29.36 0zm83.21 -31.91l27.62 0c0.14,2.77 1.63,5.25 4.47,7.41 2.84,2.16 6.24,3.23 10.18,3.23 3.4,-0.14 6.28,-0.96 8.62,-2.45 2.38,-1.49 3.55,-3.44 3.55,-5.85 0,-2.13 -0.74,-3.83 -2.2,-5.14 -1.45,-1.28 -3.97,-2.34 -7.55,-3.26l-13.01 -3.4c-5.67,-1.52 -10.53,-3.4 -14.54,-5.67 -4.01,-2.27 -6.98,-4.4 -8.94,-6.42 -1.91,-2.06 -3.4,-4.43 -4.47,-7.23 -1.03,-2.77 -1.63,-4.96 -1.77,-6.63 -0.11,-1.63 -0.14,-3.69 -0.07,-6.17 0.11,-7.34 4.04,-13.83 11.74,-19.5 7.66,-5.64 16.66,-8.47 26.98,-8.47 4.11,0 8.01,0.35 11.77,1.1 3.79,0.71 7.45,1.92 10.96,3.58 3.55,1.63 6.6,3.72 9.18,6.2 2.59,2.48 4.64,5.6 6.24,9.4 1.59,3.76 2.41,7.98 2.48,12.69l-27.65 0c-0.14,-6.1 -3.9,-9.15 -11.31,-9.15 -3.19,0 -5.74,0.67 -7.66,2.02 -1.91,1.35 -2.8,3.12 -2.73,5.35 0.25,3.58 3.16,6.06 8.72,7.45l16.81 4.47c4.54,1.24 8.51,2.87 11.91,4.89 3.4,2.06 6.03,4.11 7.84,6.17 1.81,2.09 3.3,4.33 4.43,6.74 1.13,2.45 1.84,4.47 2.16,6.17 0.32,1.7 0.46,3.3 0.46,4.82 0,5.18 -1.24,9.82 -3.72,14 -2.45,4.15 -5.74,7.48 -9.89,10 -4.11,2.52 -8.69,4.43 -13.65,5.74 -5,1.31 -10.18,1.95 -15.49,1.95 -4.08,0 -8.12,-0.46 -12.05,-1.38 -3.94,-0.96 -7.69,-2.38 -11.2,-4.25 -3.55,-1.91 -6.67,-4.18 -9.36,-6.84 -2.69,-2.66 -4.82,-5.81 -6.38,-9.57 -1.56,-3.72 -2.38,-7.69 -2.45,-11.98zm104.17 -8.08l0 -59.35 29.36 0 0 53.47c0,3.79 0.57,7.06 1.74,9.82 1.13,2.73 2.66,4.82 4.54,6.17 1.88,1.38 3.76,2.38 5.64,2.98 1.88,0.64 3.79,0.96 5.74,0.96 5.18,0 9.47,-1.63 12.91,-4.93 3.44,-3.3 5.18,-8.47 5.18,-15.53l0 -52.93 29.36 0 0 99.35 -29.36 0 0 -13.3c-2.59,4.79 -6.28,8.54 -11.13,11.27 -4.82,2.77 -9.75,4.15 -14.78,4.15 -11.63,0 -21.1,-3.62 -28.33,-10.81 -7.23,-7.2 -10.85,-17.66 -10.85,-31.31zm123.46 -83.78c-3.62,-3.4 -5.43,-7.52 -5.43,-12.37 0,-4.86 1.81,-8.93 5.46,-12.23 3.62,-3.33 7.94,-5 13.01,-5 5,0 9.25,1.67 12.8,5 3.55,3.3 5.32,7.37 5.32,12.23 0,4.86 -1.77,8.97 -5.32,12.37 -3.55,3.37 -7.8,5.07 -12.8,5.07 -5.07,0 -9.4,-1.7 -13.05,-5.07zm-1.6 123.77l0 -99.35 29.36 0 0 99.35 -29.36 0zm56.52 0l0 -99.35 29.36 0 0 14.78c2.66,-5.07 6.63,-9.15 11.98,-12.27 5.32,-3.09 10.92,-4.64 16.84,-4.64 11.42,0 20.32,3.58 26.7,10.71 6.38,7.13 9.57,17.62 9.57,31.45l0 59.32 -29.36 0 0 -52.54c0,-6.31 -1.6,-11.17 -4.75,-14.54 -3.19,-3.37 -7.37,-5.03 -12.59,-5.03 -12.27,0 -18.4,6.67 -18.4,20l0 52.12 -29.36 0zm114.84 -49.32c0,-7.73 1.38,-14.93 4.18,-21.56 2.77,-6.59 6.49,-12.13 11.1,-16.52 4.61,-4.4 9.93,-7.84 15.92,-10.32 5.96,-2.52 12.13,-3.76 18.47,-3.76 6.35,0 12.3,1.31 17.83,3.9 5.57,2.59 9.5,6.1 11.84,10.53l0 -12.3 29.14 0 0 85.52c0,21.06 -4.89,36.91 -14.68,47.51 -9.79,10.6 -23.75,15.88 -41.87,15.88 -10.88,0 -20.74,-2.8 -29.5,-8.4 -8.79,-5.6 -15.28,-13.08 -19.5,-22.44 2.48,-1.24 6.49,-3.19 12.02,-5.85 5.5,-2.66 9.5,-4.57 12.02,-5.78 1.67,4.5 4.96,8.26 9.89,11.31 4.93,3.05 9.96,4.57 15.07,4.57 19.75,0 28.9,-11.77 27.41,-35.31 -2.27,4.43 -6.2,7.98 -11.77,10.57 -5.6,2.59 -11.56,3.9 -17.9,3.9 -8.62,0 -16.66,-2.09 -24.14,-6.24 -7.52,-4.15 -13.65,-10.21 -18.4,-18.19 -4.75,-7.94 -7.13,-16.95 -7.13,-27.02zm31.06 -0.71c0,7.16 2.34,12.98 6.98,17.41 4.64,4.43 10.21,6.67 16.7,6.67 6.28,0 11.81,-2.27 16.63,-6.81 4.82,-4.57 7.23,-10.32 7.23,-17.27 0,-7.09 -2.34,-12.76 -7.06,-17.02 -4.72,-4.22 -10.32,-6.35 -16.81,-6.35 -6.49,0 -12.05,2.2 -16.7,6.56 -4.64,4.4 -6.98,9.96 -6.98,16.81zm159.65 50.03l0 -146.57 31.06 0 0 146.57 -31.06 0zm61.83 0l0 -99.35 29.36 0 0 14.78c2.66,-5.07 6.63,-9.15 11.98,-12.27 5.32,-3.09 10.92,-4.64 16.84,-4.64 11.42,0 20.32,3.58 26.7,10.71 6.38,7.13 9.57,17.62 9.57,31.45l0 59.32 -29.36 0 0 -52.54c0,-6.31 -1.6,-11.17 -4.75,-14.54 -3.19,-3.37 -7.37,-5.03 -12.59,-5.03 -12.27,0 -18.4,6.67 -18.4,20l0 52.12 -29.36 0zm112.07 -75.94l0 -23.4 18.08 0 0 -38.08 29.36 0 0 38.08 20.85 0 0 23.4 -20.85 0 0 75.94 -29.36 0 0 -75.94 -18.08 0zm85.94 53.29c-4.68,-7.98 -7.02,-17.05 -7.02,-27.16 0,-10.1 2.34,-19.15 7.02,-27.09 4.64,-7.94 10.92,-14.04 18.79,-18.26 7.87,-4.22 16.52,-6.31 26.02,-6.31 6.98,0 13.61,1.28 19.82,3.83 6.24,2.59 11.63,6.1 16.2,10.6 4.57,4.5 8.19,10.03 10.88,16.56 2.66,6.56 3.97,13.65 3.97,21.34 0,2.62 -0.14,5.67 -0.39,9.15l-72.82 0c0.67,5.39 3.47,9.54 8.37,12.44 4.86,2.91 10.25,4.36 16.13,4.36 4.29,0 8.4,-0.82 12.3,-2.41 3.94,-1.63 7.06,-3.97 9.43,-7.06l21.49 14.75c-4.64,6.88 -11.06,11.95 -19.22,15.17 -8.15,3.23 -16.91,4.86 -26.17,4.86 -9.5,0 -18.15,-2.13 -26.02,-6.38 -7.87,-4.26 -14.15,-10.39 -18.79,-18.4zm22.9 -35.84l42.97 0c-0.67,-5.39 -3.12,-9.47 -7.3,-12.23 -4.18,-2.77 -8.72,-4.15 -13.54,-4.15 -4.86,0 -9.47,1.35 -13.83,4.04 -4.36,2.69 -7.13,6.81 -8.3,12.34zm92.96 58.5l0 -99.35 29.36 0 0 23.86c2.34,-8.54 6.2,-15 11.52,-19.39 5.35,-4.4 10.85,-6.59 16.52,-6.59 6.67,0 12.34,1.21 17.05,3.58l-5.32 26.45c-4.08,-2.02 -9.15,-3.01 -15.18,-3.01 -8.44,0 -14.64,3.3 -18.65,9.89 -3.97,6.59 -5.96,16.52 -5.96,29.78l0 34.78 -29.36 0zm82.33 -49.99c0,-10.11 2.34,-19.11 7.02,-27.05 4.68,-7.91 10.92,-13.97 18.72,-18.15 7.8,-4.18 16.38,-6.28 25.74,-6.28 9.36,0 17.94,2.09 25.74,6.31 7.84,4.22 14.11,10.32 18.86,18.29 4.72,8.01 7.09,16.95 7.09,26.88 0,9.93 -2.38,18.9 -7.09,26.95 -4.75,8.05 -11.03,14.18 -18.86,18.4 -7.8,4.22 -16.38,6.35 -25.74,6.35 -9.36,0 -17.94,-2.09 -25.74,-6.28 -7.8,-4.22 -14.04,-10.28 -18.72,-18.22 -4.68,-7.94 -7.02,-16.98 -7.02,-27.19zm29.14 0c0,6.59 2.16,11.98 6.49,16.13 4.33,4.15 9.61,6.2 15.85,6.2 6.38,0 11.74,-2.06 16.06,-6.17 4.33,-4.11 6.49,-9.5 6.49,-16.17 0,-6.45 -2.2,-11.77 -6.56,-15.92 -4.36,-4.15 -9.68,-6.2 -15.99,-6.2 -6.24,0 -11.52,2.06 -15.85,6.2 -4.33,4.15 -6.49,9.47 -6.49,15.92zm95.23 98.71l0 -148.06 29.36 0 0 12.3c2.41,-4.5 6.31,-8.01 11.67,-10.6 5.32,-2.55 11.13,-3.83 17.44,-3.83 6.38,0 12.48,1.24 18.29,3.69 5.81,2.45 10.92,5.89 15.32,10.25 4.4,4.4 7.91,9.86 10.57,16.34 2.62,6.49 3.94,13.54 3.94,21.17 0,7.77 -1.31,14.96 -3.94,21.59 -2.66,6.63 -6.17,12.16 -10.57,16.56 -4.4,4.4 -9.5,7.84 -15.32,10.32 -5.81,2.45 -11.91,3.69 -18.29,3.69 -6.38,0 -12.23,-1.28 -17.55,-3.83 -5.35,-2.55 -9.18,-6.06 -11.56,-10.53l0 60.95 -29.36 0zm29.99 -98.14c0,7.09 2.23,12.8 6.7,17.05 4.47,4.29 9.89,6.42 16.27,6.42 6.45,0 11.88,-2.16 16.31,-6.52 4.43,-4.33 6.67,-9.96 6.67,-16.95 0,-7.09 -2.23,-12.87 -6.67,-17.3 -4.43,-4.43 -9.86,-6.67 -16.31,-6.67 -6.31,0 -11.74,2.27 -16.24,6.77 -4.5,4.5 -6.74,10.25 -6.74,17.2zm99.06 26.77c-4.68,-7.98 -7.02,-17.05 -7.02,-27.16 0,-10.1 2.34,-19.15 7.02,-27.09 4.64,-7.94 10.92,-14.04 18.79,-18.26 7.87,-4.22 16.52,-6.31 26.02,-6.31 6.98,0 13.61,1.28 19.82,3.83 6.24,2.59 11.63,6.1 16.2,10.6 4.57,4.5 8.19,10.03 10.88,16.56 2.66,6.56 3.97,13.65 3.97,21.34 0,2.62 -0.14,5.67 -0.39,9.15l-72.82 0c0.67,5.39 3.47,9.54 8.37,12.44 4.86,2.91 10.25,4.36 16.13,4.36 4.29,0 8.4,-0.82 12.3,-2.41 3.94,-1.63 7.06,-3.97 9.43,-7.06l21.49 14.75c-4.64,6.88 -11.06,11.95 -19.22,15.17 -8.15,3.23 -16.91,4.86 -26.17,4.86 -9.5,0 -18.15,-2.13 -26.02,-6.38 -7.87,-4.26 -14.15,-10.39 -18.79,-18.4zm22.9 -35.84l42.97 0c-0.67,-5.39 -3.12,-9.47 -7.3,-12.23 -4.18,-2.77 -8.72,-4.15 -13.54,-4.15 -4.86,0 -9.47,1.35 -13.83,4.04 -4.36,2.69 -7.13,6.81 -8.3,12.34zm92.96 58.5l0 -99.35 29.36 0 0 23.86c2.34,-8.54 6.2,-15 11.52,-19.39 5.35,-4.4 10.85,-6.59 16.52,-6.59 6.67,0 12.34,1.21 17.05,3.58l-5.32 26.45c-4.08,-2.02 -9.15,-3.01 -15.18,-3.01 -8.44,0 -14.64,3.3 -18.65,9.89 -3.97,6.59 -5.96,16.52 -5.96,29.78l0 34.78 -29.36 0zm82.33 -49.74c0,-7.66 1.45,-14.82 4.33,-21.45 2.87,-6.59 6.67,-12.09 11.45,-16.42 4.79,-4.33 10.18,-7.73 16.2,-10.18 6.03,-2.45 12.23,-3.69 18.61,-3.69 2.69,0 5.57,0.28 8.65,0.89 3.09,0.57 6.67,1.95 10.71,4.04 4.04,2.13 7.27,4.86 9.61,8.26l0 -11.06 29.14 0 0 99.35 -29.14 0 0 -11.31c-2.84,4.29 -7.2,7.59 -13.05,9.82 -5.85,2.27 -11.17,3.4 -15.92,3.4 -8.62,0 -16.7,-2.06 -24.32,-6.13 -7.62,-4.08 -13.9,-10.14 -18.86,-18.12 -4.93,-8.01 -7.41,-17.12 -7.41,-27.41zm38.15 -16.95c-5,4.47 -7.52,10.1 -7.52,16.95 0,6.88 2.52,12.52 7.52,16.95 5.03,4.43 10.81,6.63 17.3,6.63 6.45,0 12.09,-2.16 16.88,-6.49 4.82,-4.33 7.23,-10 7.23,-17.09 0,-7.13 -2.41,-12.84 -7.23,-17.16 -4.79,-4.33 -10.42,-6.49 -16.88,-6.49 -6.49,0 -12.27,2.23 -17.3,6.7zm97.96 66.69l0 -153.38 29.36 0 0 66.27c2.38,-4.47 6.2,-7.98 11.56,-10.53 5.32,-2.55 11.17,-3.83 17.55,-3.83 6.38,0 12.48,1.24 18.29,3.76 5.81,2.48 10.92,5.96 15.32,10.35 4.4,4.4 7.91,9.93 10.57,16.56 2.62,6.63 3.94,13.83 3.94,21.59 0,7.62 -1.31,14.68 -3.94,21.17 -2.66,6.49 -6.17,11.91 -10.57,16.27 -4.4,4.36 -9.5,7.77 -15.32,10.21 -5.81,2.45 -11.91,3.69 -18.29,3.69 -6.31,0 -12.13,-1.28 -17.44,-3.86 -5.35,-2.55 -9.25,-6.1 -11.67,-10.6l0 12.34 -29.36 0zm29.99 -49.81c0,6.95 2.23,12.66 6.74,17.16 4.5,4.47 9.93,6.7 16.24,6.7 6.45,0 11.88,-2.2 16.31,-6.63 4.43,-4.4 6.67,-10.14 6.67,-17.23 0,-6.98 -2.23,-12.62 -6.67,-17.02 -4.43,-4.36 -9.86,-6.56 -16.31,-6.56 -6.38,0 -11.81,2.16 -16.27,6.45 -4.47,4.33 -6.7,10 -6.7,17.12zm99.56 -73.96c-3.62,-3.4 -5.43,-7.52 -5.43,-12.37 0,-4.86 1.81,-8.93 5.46,-12.23 3.62,-3.33 7.94,-5 13.01,-5 5,0 9.25,1.67 12.8,5 3.55,3.3 5.32,7.37 5.32,12.23 0,4.86 -1.77,8.97 -5.32,12.37 -3.55,3.37 -7.8,5.07 -12.8,5.07 -5.07,0 -9.4,-1.7 -13.05,-5.07zm-1.6 123.77l0 -99.35 29.36 0 0 99.35 -29.36 0zm56.52 0l0 -153.38 29.36 0 0 153.38 -29.36 0zm58.32 -123.77c-3.62,-3.4 -5.43,-7.52 -5.43,-12.37 0,-4.86 1.81,-8.93 5.46,-12.23 3.62,-3.33 7.94,-5 13.01,-5 5,0 9.25,1.67 12.8,5 3.55,3.3 5.32,7.37 5.32,12.23 0,4.86 -1.77,8.97 -5.32,12.37 -3.55,3.37 -7.8,5.07 -12.8,5.07 -5.07,0 -9.4,-1.7 -13.05,-5.07zm-1.6 123.77l0 -99.35 29.36 0 0 99.35 -29.36 0zm47.79 -75.94l0 -23.4 18.08 0 0 -38.08 29.36 0 0 38.08 20.85 0 0 23.4 -20.85 0 0 75.94 -29.36 0 0 -75.94 -18.08 0zm73.32 -23.4l31.45 0 21.91 56.3 22.12 -56.3 31.48 0 -61.27 148.06 -31.27 0 23.9 -58.93 -38.33 -89.13z"/>
   <path class="fil5" d="M4371.66 1065.2c63.96,0 115.82,51.85 115.82,115.82 0,63.96 -51.85,115.82 -115.82,115.82 -63.96,0 -115.82,-51.85 -115.82,-115.82 0,-63.96 51.85,-115.82 115.82,-115.82z"/>
   <polygon class="fil0" points="1502.07,1501.23 -0,1501.23 -0,1564.85 1502.07,1564.85 "/>
  </g>
 </g>
</svg>
