<svg xmlns="http://www.w3.org/2000/svg" xmlns:xlink="http://www.w3.org/1999/xlink" width="147.697" height="81.812" viewBox="0 0 147.697 81.812">
  <defs>
    <clipPath id="clip-path">
      <rect width="147.697" height="81.812" fill="none"/>
    </clipPath>
  </defs>
  <g id="Repeat_Grid_1" data-name="Repeat Grid 1" clip-path="url(#clip-path)">
    <g id="Group_254" data-name="Group 254" transform="translate(-100 -2022)">
      <g id="Group_234" data-name="Group 234" transform="translate(100 2022)">
        <g id="Group_233" data-name="Group 233" transform="translate(0)">
          <g id="Group_232" data-name="Group 232">
            <g id="Group_231" data-name="Group 231">
              <path id="Path_3469" data-name="Path 3469" d="M45.836,9.027,43.39,17.346l8.338-2.389-2.379-2.4a39.994,39.994,0,0,1,5.6-4.476L54.06,6.751a41.056,41.056,0,0,0-5.845,4.674l-2.389-2.4Zm59.609,2.889a41.43,41.43,0,0,0-4-3.494L100.469,9.7a39.328,39.328,0,0,1,3.843,3.361l1.124-1.133ZM100.129,7.45a41.581,41.581,0,0,0-7.091-4L92.4,4.91a39.986,39.986,0,0,1,6.817,3.843l.916-1.312ZM91.536,2.823A40.479,40.479,0,0,0,83.7.614l-.274,1.577a39.287,39.287,0,0,1,7.526,2.125ZM82.085.368A41.13,41.13,0,0,0,73.945.085l.1,1.6a40.077,40.077,0,0,1,7.818.274L82.075.368ZM72.321.217A40.248,40.248,0,0,0,64.352,1.87l.482,1.53a38.592,38.592,0,0,1,7.658-1.586L72.321.227ZM62.8,2.389a41.631,41.631,0,0,0-7.356,3.494l.831,1.369A39.731,39.731,0,0,1,63.351,3.9l-.538-1.5Z" transform="translate(-2.42 -0.001)" fill="#96989a"/>
              <path id="Path_3470" data-name="Path 3470" d="M107.324,76.83l2.5-8.3-8.356,2.332,2.361,2.408A39.84,39.84,0,0,1,98.2,77.708l.869,1.341a40.99,40.99,0,0,0,5.883-4.636l2.37,2.417ZM47.29,73.062a40.98,40.98,0,0,0,4.419,3.975l.982-1.265a40.785,40.785,0,0,1-4.249-3.824l-1.152,1.1Zm5.731,4.957a41.568,41.568,0,0,0,7.063,4.051l.652-1.464a39.344,39.344,0,0,1-6.789-3.89l-.925,1.3ZM61.586,82.7A41.137,41.137,0,0,0,69.4,84.969l.283-1.577a40.021,40.021,0,0,1-7.516-2.172L61.576,82.7Zm9.433,2.521a40.379,40.379,0,0,0,8.13.34l-.094-1.6a39.375,39.375,0,0,1-7.818-.33Zm9.754.217c1.19-.1,2.408-.293,3.569-.51a41.724,41.724,0,0,0,4.41-1.086l-.472-1.53a39.162,39.162,0,0,1-7.658,1.53h-.009l.151,1.6Zm9.537-2.106a40.952,40.952,0,0,0,7.346-3.428l.028-.019-.821-1.369a39.358,39.358,0,0,1-7.091,3.3l.529,1.511Z" transform="translate(-2.637 -3.823)" fill="#96989a"/>
              <path id="Path_3471" data-name="Path 3471" d="M0,29.11,25.957,41.885V69.259L0,56.106Z" transform="translate(0 -1.624)" fill="#179be3" fill-rule="evenodd"/>
              <path id="Path_3472" data-name="Path 3472" d="M53.5,29.11,27.53,41.885V69.259L53.5,56.106Z" transform="translate(-1.535 -1.624)" fill="#147db5" fill-rule="evenodd"/>
              <path id="Path_3473" data-name="Path 3473" d="M.06,28.361,26.036,15.34,52.021,28.361l-.057.028v-.047L26,41.118v.245l-.038-.019v-.227L1.826,29.249Z" transform="translate(-0.003 -0.856)" fill="#a2cee7" fill-rule="evenodd"/>
              <path id="Path_3474" data-name="Path 3474" d="M101.34,28.8,127.3,41.566V68.939L101.34,55.786Z" transform="translate(-5.652 -1.607)" fill="#179be3" fill-rule="evenodd"/>
              <path id="Path_3475" data-name="Path 3475" d="M154.827,28.8,128.87,41.566V68.939l25.957-13.153Z" transform="translate(-7.187 -1.607)" fill="#147db5" fill-rule="evenodd"/>
              <path id="Path_3476" data-name="Path 3476" d="M101.4,28.041,127.376,15.02l25.976,13.021-.057.028v-.038L127.338,40.8v.246l-.038-.019V40.8L103.166,28.929Z" transform="translate(-5.655 -0.839)" fill="#a2cee7" fill-rule="evenodd"/>
              <path id="Path_3477" data-name="Path 3477" d="M91.55,37l-6.307,4.089-.878-1.341,4.051-2.616H63.28V35.526H88.415L84.365,32.91l.878-1.35,7.346,4.768Z" transform="translate(-3.529 -1.761)" fill="#96989a"/>
              <path id="Path_3478" data-name="Path 3478" d="M66.9,50.241H92.039V48.636H66.9l4.041-2.625-.869-1.341L62.73,49.438,70.076,54.2l.869-1.341Z" transform="translate(-3.498 -2.492)" fill="#96989a"/>
            </g>
          </g>
        </g>
      </g>
    </g>
  </g>
</svg>
