<svg xmlns="http://www.w3.org/2000/svg" width="155.065" height="81.812" viewBox="0 0 155.065 81.812">
  <g id="Group_256" data-name="Group 256" transform="translate(-100 -2455)">
    <g id="Group_230" data-name="Group 230" transform="translate(100 2455)">
      <g id="Group_229" data-name="Group 229">
        <g id="Group_228" data-name="Group 228">
          <g id="Group_227" data-name="Group 227">
            <g id="Group_226" data-name="Group 226">
              <g id="Group_225" data-name="Group 225">
                <path id="Path_3494" data-name="Path 3494" d="M0,306.04l25.957,12.775v27.373L0,333.026Z" transform="translate(0 -278.696)" fill="#179be3" fill-rule="evenodd"/>
                <path id="Path_3495" data-name="Path 3495" d="M53.5,306.04,27.53,318.815v27.373L53.5,333.026Z" transform="translate(-1.535 -278.696)" fill="#147db5" fill-rule="evenodd"/>
                <path id="Path_3496" data-name="Path 3496" d="M.06,305.281,26.036,292.26l25.985,13.021-.057.028v-.038L26,318.047v.245l-.038-.019v-.227L1.826,306.169Z" transform="translate(-0.003 -277.928)" fill="#a2cee7" fill-rule="evenodd"/>
                <path id="Path_3497" data-name="Path 3497" d="M71.154,320.932H96.279v-1.605H71.154l4.041-2.616-.869-1.341-7.346,4.759,7.346,4.768.869-1.35Z" transform="translate(-3.735 -279.216)" fill="#96989a"/>
                <path id="Path_3498" data-name="Path 3498" d="M109.159,331.753c.935.17,11.095.066,12.889.057H154.53a57.512,57.512,0,0,1,6.534.057l.009-15.259c-8.621.1-17.412.076-26.042,0-1.445-.009-24.975-.142-25.881.066v15.079Z" transform="translate(-6.087 -279.283)" fill="#179be3" fill-rule="evenodd"/>
                <path id="Path_3499" data-name="Path 3499" d="M109.269,312.822l51.763-.009c-.293-.538-1.973-2.247-2.427-2.814l-4.532-5a3.527,3.527,0,0,0-1.955-.245H118.174a3.9,3.9,0,0,0-1.888.208,16.443,16.443,0,0,0-2.04,2.153c-.576.746-4.863,5.231-4.986,5.713Z" transform="translate(-6.093 -278.623)" fill="#147db5" fill-rule="evenodd"/>
                <path id="Path_3500" data-name="Path 3500" d="M109.159,316.492c.906-.208,24.427-.076,25.881-.066,8.621.076,17.421.1,26.042,0l-.009,15.259.066.057V314.348a2.147,2.147,0,0,0-.1-1.048l-51.763.009a16.873,16.873,0,0,0-.1,3.182Z" transform="translate(-6.087 -279.101)" fill="#a2cee7" fill-rule="evenodd"/>
                <path id="Path_3501" data-name="Path 3501" d="M161.13,332.819l-.066-.057a57.527,57.527,0,0,0-6.534-.057H122.048c-1.794.009-11.954.123-12.889-.057,0,1.492-.123,2.153.755,2.87.661.529,2.2.34,3.324.34h43.69c3.2,0,4.192.425,4.192-3.04Z" transform="translate(-6.087 -280.179)" fill="#147db5" fill-rule="evenodd"/>
                <path id="Path_3502" data-name="Path 3502" d="M45.836,286.107l-2.446,8.319,8.338-2.389-2.379-2.4a40,40,0,0,1,5.6-4.476l-.888-1.331a41.057,41.057,0,0,0-5.845,4.674l-2.389-2.4ZM105.445,289a41.435,41.435,0,0,0-4-3.494l-.973,1.275a39.329,39.329,0,0,1,3.843,3.361l1.124-1.133Zm-5.316-4.466a41.579,41.579,0,0,0-7.091-4L92.4,281.99a39.986,39.986,0,0,1,6.817,3.843l.916-1.312ZM91.536,279.9a40.481,40.481,0,0,0-7.837-2.21l-.274,1.577a39.288,39.288,0,0,1,7.526,2.125l.585-1.492Zm-9.452-2.455a41.128,41.128,0,0,0-8.139-.283l.1,1.6a40.077,40.077,0,0,1,7.818.274l.208-1.586Zm-9.763-.151a40.249,40.249,0,0,0-7.969,1.652l.482,1.53a38.6,38.6,0,0,1,7.658-1.586l-.17-1.586ZM62.8,279.469a41.63,41.63,0,0,0-7.356,3.494l.831,1.369a39.731,39.731,0,0,1,7.072-3.352l-.538-1.5Z" transform="translate(-2.42 -277.081)" fill="#96989a"/>
                <path id="Path_3503" data-name="Path 3503" d="M99,356.249a41.152,41.152,0,0,0,6.355-5.089l-1.124-1.143a39.538,39.538,0,0,1-6.109,4.891l.869,1.341Zm-44.747-5.713.179-.774-8.526-2,1.652,8.593,1.567-.3-.916-4.778a42.472,42.472,0,0,0,3.418,2.965l.982-1.265a40.1,40.1,0,0,1-3.182-2.757l4.646,1.086.179-.774Zm-1.312,4.683a41.567,41.567,0,0,0,7.063,4.051l.652-1.464a39.345,39.345,0,0,1-6.789-3.89l-.925,1.3Zm8.564,4.683a41.135,41.135,0,0,0,7.818,2.266l.283-1.577a40.021,40.021,0,0,1-7.516-2.172L61.5,359.9Zm9.433,2.521a40.38,40.38,0,0,0,8.13.34l-.094-1.6a39.374,39.374,0,0,1-7.818-.33l-.217,1.586Zm9.754.217c1.19-.1,2.408-.293,3.569-.51a41.72,41.72,0,0,0,4.41-1.086l-.472-1.53a39.161,39.161,0,0,1-7.658,1.53h-.009l.151,1.6Zm9.537-2.106a40.951,40.951,0,0,0,7.346-3.428l.028-.019-.821-1.369a39.356,39.356,0,0,1-7.091,3.3l.529,1.511Z" transform="translate(-2.56 -281.023)" fill="#96989a"/>
              </g>
            </g>
          </g>
        </g>
      </g>
    </g>
  </g>
</svg>
