<svg xmlns="http://www.w3.org/2000/svg" width="130.7" height="99.019" viewBox="0 0 130.7 99.019">
  <g id="Group_255" data-name="Group 255" transform="translate(-100 -2240)">
    <g id="Group_224" data-name="Group 224" transform="translate(100 2240)">
      <g id="Group_223" data-name="Group 223" transform="translate(0 0)">
        <g id="Group_222" data-name="Group 222" transform="translate(0 0)">
          <path id="Path_3479" data-name="Path 3479" d="M61.83,186.268l60.449-34.9.91,1.581L62.74,187.85Z" transform="translate(-11.996 -137.549)" fill="#96989a"/>
          <path id="Path_3480" data-name="Path 3480" d="M62.74,183.59l60.449,34.9-.91,1.581-60.449-34.9Z" transform="translate(-11.996 -134.871)" fill="#96989a"/>
          <path id="Path_3481" data-name="Path 3481" d="M62.25,183.47h62.615v1.841H62.25Z" transform="translate(-11.961 -134.881)" fill="#96989a"/>
          <path id="Path_3482" data-name="Path 3482" d="M15.82,169.95,45.6,184.6V216l-29.775-15.1Z" transform="translate(-15.82 -136.005)" fill="#179be3" fill-rule="evenodd"/>
          <path id="Path_3483" data-name="Path 3483" d="M73.125,169.95,43.35,184.6V216l29.775-15.1Z" transform="translate(-13.532 -136.005)" fill="#147db5" fill-rule="evenodd"/>
          <path id="Path_3484" data-name="Path 3484" d="M15.88,171.106l29.8-14.936,29.8,14.936-.065.033V171.1L45.633,185.75v.271L45.59,186v-.249L17.905,172.124Z" transform="translate(-15.815 -137.15)" fill="#a2cee7" fill-rule="evenodd"/>
          <path id="Path_3485" data-name="Path 3485" d="M112.78,144.54l12.813,6.315v13.517l-12.813-6.5Z" transform="translate(-7.76 -138.117)" fill="#179be3" fill-rule="evenodd"/>
          <path id="Path_3486" data-name="Path 3486" d="M137.454,144.54l-12.824,6.315v13.517l12.824-6.5Z" transform="translate(-6.775 -138.117)" fill="#147db5" fill-rule="evenodd"/>
          <path id="Path_3487" data-name="Path 3487" d="M112.8,145.044l12.835-6.434,12.824,6.434-.022.011v-.022l-12.824,6.315v.119l-.022-.011v-.108l-11.914-5.871Z" transform="translate(-7.759 -138.61)" fill="#a2cee7" fill-rule="evenodd"/>
          <path id="Path_3488" data-name="Path 3488" d="M112.78,178.13l12.813,6.315v13.517l-12.813-6.5Z" transform="translate(-7.76 -135.325)" fill="#179be3" fill-rule="evenodd"/>
          <path id="Path_3489" data-name="Path 3489" d="M137.454,178.13l-12.824,6.315v13.517l12.824-6.5Z" transform="translate(-6.775 -135.325)" fill="#147db5" fill-rule="evenodd"/>
          <path id="Path_3490" data-name="Path 3490" d="M112.8,178.634l12.835-6.434,12.824,6.434-.022.011v-.022l-12.824,6.315v.119l-.022-.011v-.108l-11.914-5.871Z" transform="translate(-7.759 -135.818)" fill="#a2cee7" fill-rule="evenodd"/>
          <path id="Path_3491" data-name="Path 3491" d="M112.78,211.72l12.813,6.315v13.517l-12.813-6.5Z" transform="translate(-7.76 -132.533)" fill="#179be3" fill-rule="evenodd"/>
          <path id="Path_3492" data-name="Path 3492" d="M137.454,211.72l-12.824,6.315v13.517l12.824-6.5Z" transform="translate(-6.775 -132.533)" fill="#147db5" fill-rule="evenodd"/>
          <path id="Path_3493" data-name="Path 3493" d="M112.8,212.224l12.835-6.434,12.824,6.434-.022.011v-.022l-12.824,6.315v.119l-.022-.011v-.108l-11.914-5.871Z" transform="translate(-7.759 -133.026)" fill="#a2cee7" fill-rule="evenodd"/>
        </g>
      </g>
    </g>
  </g>
</svg>
