<?xml version="1.0" encoding="utf-8"?>
<!-- Generator: Adobe Illustrator 23.0.0, SVG Export Plug-In . SVG Version: 6.00 Build 0)  -->
<svg version="1.1" id="Layer_1" xmlns="http://www.w3.org/2000/svg" xmlns:xlink="http://www.w3.org/1999/xlink" x="0px" y="0px"
	 viewBox="0 0 466.17 171.16" style="enable-background:new 0 0 466.17 171.16;" xml:space="preserve">
<style type="text/css">
	.st0{fill-rule:evenodd;clip-rule:evenodd;fill:#010280;}
	.st1{fill-rule:evenodd;clip-rule:evenodd;fill:#7E0080;}
</style>
<g>
	<path class="st0" d="M233.23,108.57h21.75V63.23l35.3,45.33h20.07v-9.43c9.98,8.13,23.18,12.25,37.03,12.25
		c20.07,0,33.41-10.04,33.41-26.92v-0.23c0-15.47-11.81-21.6-30.81-25.74c-11.45-2.59-14.29-4.25-14.29-8.03v-0.23
		c0-2.96,2.71-5.32,8.26-5.32c7.33,0,15.59,2.84,23.14,8.15l11.45-16.16c-8.97-7.21-19.94-10.99-34-10.99c-19.82,0-32,11.1-32,26.44
		v0.25c0,17,13.58,21.96,31.18,25.97c11.22,2.59,13.93,4.48,13.93,7.92v0.23c0,3.53-3.3,5.67-9.44,5.67
		c-9.56,0-18.66-3.43-26.81-9.92l-11.05,13.2V25.91h-22.67v43.69l-34-43.69h-21.37v81.32l-18.81-27.47
		c10.28-4.37,17.02-12.75,17.02-25.4v-0.23c0-8.15-2.5-14.52-7.33-19.25c-5.55-5.67-14.29-8.97-26.92-8.97h-37.66l21.5,39.67
		l-0.02-19.82h15c7.67,0,12.4,3.3,12.4,9.79v0.25c0,6.01-4.5,9.79-12.29,9.79h-15.09l26.67,42.99H233.23L233.23,108.57z
		 M181.03,108.57h18.34l-9.16-16.16L181.03,108.57z"/>
	<path class="st1" d="M132.57,31.16l8.85,14.6l17.08-0.36l-4.06-6.7l-4.79-7.9l-9.23,0.21L132.57,31.16z M132.66,69.17l5.49,9.08
		l3.34,5.49l3.09-5.63l5.11-9.31l0.67-1.22l-9.18,0.19l-9.25,0.21L132.66,69.17z M144.4,88.51v0.02l0,0l4.77,7.88l4.06,6.7
		l8.22-14.96l-8.85-14.58l-3.78,6.87L144.4,88.51z M141.71,93.42l-3.09,5.63l-5.11,9.31l-0.67,1.22l-1.39,0.04l-10.63,0.23
		l-10.61,0.23l-1.39,0.02l-0.73-1.18l-5.49-9.08l-0.55-0.9l-16.16-1.22l14.75-1.11l-3.55-5.86l-0.73-1.2l0.67-1.22l3.15-5.7
		l-31.41-1.53l33.01-1.6v0.21l0.36-0.67l4.18-7.61l-22.32-1.37l23.87-1.45l0.06-0.1l1.39-0.04l10.63-0.23l9.9-0.21l-0.65,0.02
		l-0.73-1.2l-2.06-3.4l-24.06-1.47l22.34-1.37l-1.72-2.82l-1.53-2.52l-53.08-1.93l50.79-1.85l-1.7-2.79l-0.73-1.2l0.67-1.22
		l1.47-2.65l-30.93-1.74l32.89-1.85l1.68-3.07l0.86-1.55l-53.4-1.95l55.58-2.02l2.08-3.8l0.67-1.2l1.39-0.04l10.63-0.23l10.61-0.23
		l1.39-0.04l0.73,1.2l5.49,9.08l5.51,9.08l0.73,1.2l-0.67,1.2l-5.11,9.31l-5.11,9.31l-0.67,1.22l9.2-0.19l10.61-0.25l1.37-0.02
		l0.73,1.18l5.51,9.08l5.51,9.08l0.73,1.2l-0.67,1.22l-5.11,9.31l-5.11,9.31l-0.67,1.2l-1.41,0.04l-10.61,0.23l-10.63,0.23
		l-1.37,0.02l-0.73-1.18l-5.51-9.08L141.71,93.42z M134.04,80.75l-4.77-7.88l-9.23,0.19l-7.84,0.17l8.85,14.58l17.06-0.36
		L134.04,80.75z M110.15,74.47l-3.78,6.87l-4.45,8.11c2.94,4.85,5.9,9.71,8.85,14.58l8.2-14.96L110.15,74.47z M112.9,105.19
		l7.82-0.17l9.22-0.19l4.45-8.09l3.78-6.87l-17.06,0.36L112.9,105.19z M176.51,79.83l-4.79-7.88l-9.23,0.19l-7.82,0.17l8.85,14.6
		l17.06-0.38L176.51,79.83z M155.35,104.27l7.84-0.17l9.22-0.19l4.45-8.09l3.76-6.87l-17.04,0.36L155.35,104.27z M158.54,47.8
		l-17.06,0.38l-8.2,14.96l7.82-0.17l9.22-0.21l4.45-8.09L158.54,47.8z M131.16,61.97l8.2-14.96l-8.83-14.6l-3.78,6.87l-4.45,8.09
		l4.79,7.9L131.16,61.97z"/>
	<path class="st0" d="M126.08,139.42l-4.5-6.58c1.18-0.44,2.14-1.13,2.86-2.06c0.73-0.93,1.09-2.14,1.09-3.64v-0.04
		c0-1.91-0.61-3.4-1.83-4.46c-1.22-1.07-2.92-1.6-5.11-1.6h-8.4v18.39h4.04v-5.9h3.17l3.95,5.9H126.08z M121.43,127.34
		c0,0.8-0.27,1.43-0.8,1.91c-0.53,0.46-1.3,0.71-2.29,0.71h-4.1v-5.29h4.01c1.01,0,1.79,0.23,2.35,0.65
		c0.55,0.44,0.84,1.11,0.84,1.98V127.34z M142.47,139.42v-3.61h-9.98v-3.87h8.66v-3.59h-8.66v-3.74h9.85v-3.59h-13.85v18.39H142.47z
		 M158.63,139.42v-3.66h-9.18v-14.73h-4.04v18.39H158.63z M165.21,139.42v-18.39h-4.04v18.39H165.21z M187.06,139.42l-7.88-18.53
		h-3.74l-7.88,18.53h4.12l1.68-4.14h7.78l1.68,4.14H187.06z M179.7,131.71h-4.88l2.44-5.97L179.7,131.71z M204.82,134.36v-0.06
		c0-1.22-0.32-2.18-0.92-2.86c-0.61-0.71-1.45-1.24-2.52-1.64c0.32-0.19,0.65-0.4,0.93-0.63c0.29-0.25,0.53-0.53,0.74-0.86
		c0.23-0.32,0.4-0.69,0.53-1.09c0.11-0.42,0.19-0.88,0.19-1.39v-0.06c0-1.45-0.53-2.61-1.62-3.47c-1.07-0.86-2.56-1.28-4.45-1.28
		h-8.51v18.39h8.72c1.03,0,1.98-0.11,2.82-0.32c0.86-0.21,1.58-0.53,2.18-0.95c0.61-0.42,1.07-0.93,1.39-1.56
		C204.65,135.95,204.82,135.2,204.82,134.36L204.82,134.36z M199.81,126.5c0,0.69-0.27,1.18-0.8,1.49
		c-0.52,0.31-1.22,0.46-2.12,0.46h-3.74v-3.87h3.99c0.86,0,1.53,0.15,1.98,0.48c0.46,0.32,0.69,0.8,0.69,1.41V126.5z M200.82,133.87
		c0,0.69-0.25,1.18-0.76,1.51c-0.5,0.32-1.2,0.5-2.1,0.5h-4.81v-4.04h4.67c1.05,0,1.81,0.17,2.29,0.53
		c0.48,0.36,0.71,0.84,0.71,1.45V133.87z M220.72,139.42v-3.66h-9.18v-14.73h-4.04v18.39H220.72z M237.05,139.42v-3.61h-9.98v-3.87
		h8.66v-3.59h-8.66v-3.74h9.85v-3.59h-13.83v18.39H237.05z M286.66,133.96v-0.04c0-0.8-0.13-1.51-0.38-2.08
		c-0.27-0.57-0.63-1.09-1.14-1.51c-0.5-0.44-1.11-0.8-1.83-1.11c-0.73-0.31-1.56-0.59-2.5-0.82c-0.78-0.21-1.43-0.4-1.97-0.55
		c-0.52-0.17-0.92-0.32-1.22-0.52c-0.31-0.17-0.5-0.36-0.61-0.57c-0.11-0.23-0.17-0.5-0.17-0.78v-0.06c0-0.46,0.19-0.84,0.59-1.14
		c0.38-0.31,0.97-0.46,1.77-0.46c0.78,0,1.56,0.17,2.37,0.5c0.78,0.32,1.58,0.76,2.4,1.32l2.1-3.05c-0.93-0.74-1.97-1.32-3.11-1.72
		c-1.13-0.42-2.37-0.61-3.72-0.61c-0.93,0-1.81,0.13-2.59,0.4c-0.78,0.25-1.45,0.63-2.02,1.13c-0.55,0.48-0.99,1.07-1.32,1.74
		c-0.31,0.69-0.48,1.43-0.48,2.27v0.06c0,0.92,0.15,1.68,0.44,2.29s0.71,1.13,1.22,1.55c0.53,0.4,1.18,0.74,1.93,1.03
		c0.76,0.29,1.6,0.53,2.54,0.76c0.76,0.19,1.39,0.38,1.89,0.55c0.48,0.17,0.86,0.34,1.13,0.52c0.27,0.17,0.46,0.36,0.55,0.57
		c0.1,0.19,0.13,0.44,0.13,0.69v0.06c0,0.55-0.23,0.97-0.69,1.28s-1.13,0.46-1.97,0.46c-1.05,0-2-0.21-2.9-0.61
		c-0.88-0.4-1.74-0.93-2.58-1.62l-2.4,2.86c1.11,0.99,2.33,1.74,3.68,2.21c1.35,0.5,2.73,0.73,4.12,0.73c1.01,0,1.91-0.11,2.73-0.38
		c0.82-0.25,1.53-0.61,2.12-1.11c0.59-0.48,1.05-1.07,1.39-1.77C286.49,135.7,286.66,134.88,286.66,133.96L286.66,133.96z
		 M303.47,139.42v-3.61h-9.98v-3.87h8.66v-3.59h-8.66v-3.74h9.85v-3.59h-13.85v18.39H303.47z M322.57,136.44l-2.58-2.59
		c-0.73,0.65-1.43,1.18-2.16,1.56c-0.74,0.38-1.62,0.59-2.67,0.59c-0.8,0-1.51-0.17-2.18-0.48c-0.65-0.31-1.22-0.71-1.68-1.24
		c-0.46-0.53-0.82-1.14-1.09-1.83c-0.27-0.71-0.4-1.45-0.4-2.23v-0.06c0-0.78,0.13-1.53,0.4-2.23c0.27-0.69,0.63-1.3,1.11-1.81
		c0.48-0.53,1.03-0.93,1.7-1.24c0.65-0.31,1.35-0.44,2.14-0.44c0.92,0,1.76,0.17,2.5,0.55c0.74,0.36,1.49,0.86,2.19,1.51l2.58-2.96
		c-0.42-0.42-0.88-0.8-1.35-1.16c-0.5-0.34-1.03-0.65-1.6-0.9c-0.59-0.23-1.22-0.44-1.95-0.57c-0.71-0.13-1.49-0.21-2.35-0.21
		c-1.41,0-2.71,0.25-3.89,0.74c-1.16,0.52-2.18,1.18-3.01,2.06c-0.84,0.86-1.51,1.87-1.97,3.01c-0.48,1.14-0.71,2.38-0.71,3.7v0.04
		c0,1.32,0.23,2.56,0.71,3.7c0.46,1.16,1.13,2.18,1.97,3.01c0.84,0.86,1.83,1.53,3,2c1.16,0.5,2.4,0.74,3.76,0.74
		c0.9,0,1.7-0.08,2.42-0.23c0.71-0.13,1.37-0.36,1.98-0.65c0.59-0.29,1.14-0.63,1.66-1.03C321.61,137.4,322.09,136.96,322.57,136.44
		L322.57,136.44z M340.84,131.41v-10.38h-4.04v10.53c0,1.47-0.34,2.58-1.05,3.3c-0.69,0.74-1.66,1.11-2.92,1.11
		c-1.24,0-2.21-0.38-2.9-1.14c-0.71-0.76-1.05-1.89-1.05-3.4v-10.4h-4.06v10.49c0,2.73,0.73,4.77,2.14,6.12
		c1.41,1.37,3.36,2.06,5.84,2.06c1.22,0,2.33-0.17,3.34-0.52c0.99-0.34,1.83-0.86,2.54-1.55c0.71-0.71,1.24-1.56,1.62-2.59
		S340.84,132.8,340.84,131.41L340.84,131.41z M360.19,139.42l-4.5-6.58c1.18-0.44,2.14-1.13,2.86-2.06
		c0.73-0.93,1.09-2.14,1.09-3.64v-0.04c0-1.91-0.61-3.4-1.83-4.46s-2.92-1.6-5.11-1.6h-8.4v18.39h4.04v-5.9h3.17l3.95,5.9H360.19z
		 M355.53,127.34c0,0.8-0.27,1.43-0.8,1.91c-0.53,0.46-1.3,0.71-2.29,0.71h-4.1v-5.29h4.03c0.99,0,1.77,0.23,2.33,0.65
		c0.55,0.44,0.84,1.11,0.84,1.98V127.34z M376.58,139.42v-3.61h-9.98v-3.87h8.66v-3.59h-8.66v-3.74h9.85v-3.59h-13.83v18.39H376.58z
		 M263.23,137.7l-2.71-2.71c0.46-0.61,0.88-1.24,1.28-1.91s0.78-1.34,1.13-1.98l-2.96-1.62c-0.31,0.55-0.59,1.11-0.9,1.64
		c-0.31,0.53-0.59,1.03-0.9,1.51l-2.44-2.44c1.14-0.44,2.06-1.03,2.79-1.81c0.73-0.76,1.07-1.77,1.07-3.01
		c0-0.65-0.11-1.26-0.36-1.83c-0.25-0.57-0.59-1.07-1.05-1.49c-0.46-0.42-0.99-0.74-1.62-0.97c-0.63-0.25-1.34-0.36-2.14-0.36
		c-0.9,0-1.68,0.13-2.37,0.4c-0.71,0.29-1.28,0.65-1.76,1.09c-0.48,0.44-0.84,0.95-1.07,1.55c-0.25,0.59-0.38,1.2-0.38,1.83
		c0,0.65,0.11,1.26,0.31,1.85c0.21,0.59,0.53,1.2,0.99,1.85c-1.16,0.53-2.04,1.2-2.65,2.04c-0.61,0.82-0.92,1.83-0.92,3.03
		c0,0.82,0.15,1.56,0.46,2.21c0.32,0.67,0.76,1.22,1.3,1.68c0.55,0.48,1.22,0.82,1.97,1.07c0.76,0.25,1.56,0.36,2.44,0.36
		c1.07,0,2.04-0.19,2.94-0.55c0.88-0.38,1.7-0.88,2.44-1.49l2.14,2.16L263.23,137.7z M256.07,125.59c0,0.59-0.21,1.09-0.61,1.47
		c-0.42,0.36-1.03,0.71-1.83,1.01c-0.38-0.44-0.67-0.84-0.82-1.18c-0.17-0.34-0.27-0.71-0.27-1.14c0-0.55,0.17-1.01,0.5-1.35
		c0.32-0.34,0.76-0.53,1.3-0.53c0.52,0,0.93,0.15,1.26,0.46C255.9,124.59,256.07,125.03,256.07,125.59L256.07,125.59z
		 M255.86,135.32c-0.42,0.32-0.86,0.59-1.3,0.76c-0.46,0.19-0.9,0.29-1.35,0.29c-0.76,0-1.37-0.21-1.85-0.59
		c-0.48-0.4-0.73-0.93-0.73-1.58c0-0.46,0.13-0.92,0.4-1.34c0.25-0.44,0.69-0.8,1.3-1.13L255.86,135.32z"/>
</g>
</svg>
